<?xml version="1.0" encoding="utf-8"?>
<!-- Generator: Adobe Illustrator 27.5.0, SVG Export Plug-In . SVG Version: 6.00 Build 0)  -->
<svg version="1.1" xmlns="http://www.w3.org/2000/svg" xmlns:xlink="http://www.w3.org/1999/xlink" x="0px" y="0px"
	 viewBox="0 0 3710 3710" style="enable-background:new 0 0 3710 3710;" xml:space="preserve">
<g id="Background">
	<g>
		<g>
			<rect style="fill:#FFFFFF;" width="3710" height="3710"/>
		</g>
	</g>
</g>
<g id="Illustration">
	<g>
		<linearGradient id="SVGID_1_" gradientUnits="userSpaceOnUse" x1="3584.5442" y1="4046.1582" x2="1117.8513" y2="982.6804">
			<stop  offset="0" style="stop-color:#DAE3FE"/>
			<stop  offset="1" style="stop-color:#E9EFFD"/>
		</linearGradient>
		<path style="fill:url(#SVGID_1_);" d="M2913.822,2832.563c-57.091,59.35-111.11,97.624-153.789,127.863
			c-501.687,355.455-1095.315,251.842-1221.478,226.538c-186.303-37.365-546.422-109.591-806.782-411.932
			c-393.903-457.417-332.566-1178.065-27.029-1653.774c55.888-87.015,351.102-569.971,951.125-647.422
			c363.127-46.872,786.416,47.664,1092.951,301.261C3392.263,1307.42,3346.456,2382.806,2913.822,2832.563z"/>
		<g>
			<g>
				<g style="opacity:0.3;">
					<path style="fill:#BDD0FB;" d="M1760.051,1042.08c6.456,0.45,11.323,6.052,10.87,12.506
						c-0.877,12.541-1.224,25.305-1.027,37.941c0.099,6.393-4.943,11.669-11.305,11.888c-0.075,0.003-0.151,0.005-0.229,0.008
						c-6.469,0.1-11.794-5.065-11.894-11.536c-0.205-13.3,0.157-26.738,1.082-39.94c0.421-6.036,5.35-10.684,11.268-10.889
						C1759.223,1042.045,1759.636,1042.049,1760.051,1042.08z M1775.065,1153.964c1.915,12.485,4.383,25.006,7.337,37.227
						c1.52,6.285-2.344,12.618-8.633,14.141c-6.318,1.505-12.621-2.348-14.141-8.638c-3.109-12.856-5.707-26.036-7.725-39.173
						c-0.981-6.395,3.41-12.376,9.805-13.357c0.465-0.071,0.928-0.114,1.385-0.13
						C1768.945,1143.832,1774.155,1148.034,1775.065,1153.964z M1801.016,1249.934c4.634,11.713,9.832,23.366,15.458,34.643
						c2.888,5.789,0.534,12.826-5.254,15.714c-5.787,2.879-12.821,0.534-15.714-5.255c-5.923-11.875-11.4-24.15-16.277-36.483
						c-2.38-6.017,0.569-12.823,6.584-15.205c1.283-0.507,2.602-0.772,3.905-0.817
						C1794.529,1242.365,1799.144,1245.2,1801.016,1249.934z M1847.779,1337.689c7.142,10.395,14.821,20.598,22.818,30.331
						c4.106,5.001,3.384,12.384-1.615,16.49c-5.003,4.102-12.382,3.376-16.49-1.615c-8.42-10.251-16.502-20.993-24.023-31.929
						c-3.664-5.332-2.313-12.627,3.018-16.291c1.908-1.311,4.066-1.981,6.221-2.056
						C1841.576,1332.486,1845.424,1334.268,1847.779,1337.689z M1912.927,1412.84c9.251,8.527,18.999,16.781,28.974,24.523
						c5.11,3.972,6.035,11.331,2.068,16.441c-3.97,5.114-11.331,6.037-16.439,2.065c-10.493-8.146-20.75-16.831-30.484-25.803
						c-4.758-4.383-5.06-11.795-0.672-16.553c2.209-2.398,5.188-3.664,8.209-3.768
						C1907.555,1409.641,1910.567,1410.664,1912.927,1412.84z M1993.079,1471.702c10.923,6.281,22.251,12.168,33.672,17.501
						c5.862,2.738,8.397,9.711,5.66,15.57c-2.738,5.864-9.706,8.399-15.573,5.662c-12.019-5.611-23.944-11.811-35.44-18.42
						c-5.608-3.227-7.541-10.386-4.316-15.997c2.095-3.644,5.851-5.734,9.764-5.869
						C1988.957,1470.077,1991.112,1470.57,1993.079,1471.702z M2427.76,1489.71c2.879,5.794,0.516,12.826-5.28,15.705
						c-11.872,5.896-24.163,11.353-36.529,16.217c-6.022,2.369-12.824-0.592-15.19-6.614c-2.369-6.018,0.592-12.819,6.612-15.188
						c11.741-4.619,23.411-9.802,34.683-15.402c1.547-0.768,3.179-1.163,4.8-1.219
						C2421.307,1483.055,2425.651,1485.46,2427.76,1489.71z M2084.229,1511.309c12.04,3.692,24.386,6.906,36.699,9.549
						c6.327,1.361,10.354,7.592,8.995,13.917c-1.359,6.329-7.586,10.322-13.917,8.993c-12.966-2.785-25.968-6.169-38.647-10.058
						c-6.185-1.897-9.663-8.449-7.766-14.637c1.504-4.906,5.939-8.109,10.796-8.276
						C2081.655,1510.752,2082.949,1510.918,2084.229,1511.309z M2332.703,1526.997c1.509,6.29-2.371,12.615-8.664,14.124
						c-12.889,3.087-26.082,5.658-39.21,7.65c-6.399,0.999-12.368-3.433-13.34-9.828c-0.969-6.396,3.431-12.367,9.829-13.34
						c12.477-1.891,25.015-4.335,37.262-7.271c0.781-0.187,1.563-0.287,2.336-0.314
						C2326.37,1517.829,2331.385,1521.488,2332.703,1526.997z M2181.927,1529.548c12.555,0.904,25.313,1.278,37.926,1.108
						c6.471-0.09,11.786,5.083,11.874,11.555c0.085,6.385-4.953,11.646-11.306,11.866c-0.083,0.003-0.167,0.006-0.249,0.004
						c-13.278,0.184-26.711-0.208-39.924-1.158c-6.454-0.469-11.31-6.075-10.845-12.53c0.433-6.027,5.358-10.662,11.267-10.866
						C2181.083,1529.513,2181.504,1529.521,2181.927,1529.548z"/>
					<path style="fill:#BDD0FB;" d="M2486.921,1440.095c-2.305,0.08-4.612,0.837-6.6,2.325c-4.837,3.62-9.83,7.194-14.84,10.637
						c-5.334,3.66-6.692,10.955-3.03,16.287c3.66,5.336,10.958,6.7,16.29,3.027c5.272-3.616,10.522-7.379,15.613-11.186
						c5.18-3.874,6.241-11.219,2.366-16.397C2494.331,1441.593,2490.625,1439.967,2486.921,1440.095z"/>
				</g>
				<g style="opacity:0.3;">
					<path style="fill:#BDD0FB;" d="M2666.702,1131.455c-5.651,0.195-10.483,4.465-11.208,10.255
						c-0.748,5.993-1.635,12.072-2.636,18.064c-1.066,6.383,3.243,12.421,9.624,13.487c6.409,1.07,12.421-3.245,13.488-9.624
						c1.053-6.309,1.988-12.711,2.777-19.021c0.802-6.42-3.752-12.275-10.173-13.079
						C2667.943,1131.459,2667.317,1131.434,2666.702,1131.455z"/>
					<path style="fill:#BDD0FB;" d="M2221.753,618.248c6.469,0.093,11.639,5.414,11.545,11.887
						c-0.095,6.469-5.41,11.625-11.885,11.542c-12.317-0.179-24.833,0.166-37.344,1.02c-6.423,0.46-12.045-4.438-12.486-10.893
						c-0.441-6.455,4.436-12.045,10.891-12.488c5.42-0.37,10.826-0.649,16.213-0.835
						C2206.374,618.216,2214.135,618.136,2221.753,618.248z M2133.061,637.077c1.309,6.333-2.766,12.532-9.101,13.841
						c-12.165,2.517-24.354,5.571-36.23,9.086c-6.191,1.853-12.722-1.703-14.56-7.909c-1.835-6.201,1.707-12.72,7.909-14.555
						c12.503-3.701,25.335-6.919,38.136-9.564c0.664-0.137,1.328-0.216,1.981-0.238
						C2126.798,627.544,2131.888,631.403,2133.061,637.077z M2285.375,623.542c12.885,1.968,25.863,4.515,38.573,7.574
						c6.291,1.514,10.164,7.841,8.65,14.135c-1.514,6.289-7.839,10.153-14.133,8.648c-12.07-2.908-24.391-5.326-36.627-7.193
						c-6.396-0.979-10.79-6.954-9.814-13.353c0.865-5.658,5.644-9.747,11.164-9.938
						C2283.907,623.391,2284.639,623.43,2285.375,623.542z M2036.734,665.662c2.669,5.892,0.056,12.838-5.838,15.505
						c-11.299,5.116-22.512,10.779-33.33,16.825c-5.651,3.162-12.784,1.142-15.942-4.509c-3.158-5.647-1.14-12.782,4.507-15.94
						c11.393-6.369,23.202-12.332,35.098-17.72c1.438-0.649,2.937-0.99,4.424-1.041
						C2030.256,658.623,2034.716,661.207,2036.734,665.662z M2384.799,650.271c12.129,4.751,24.224,10.089,35.951,15.866
						c5.804,2.858,8.192,9.878,5.335,15.682c-2.858,5.809-9.882,8.195-15.687,5.336c-11.141-5.485-22.628-10.557-34.147-15.067
						c-6.025-2.361-8.996-9.159-6.635-15.184c1.759-4.489,5.981-7.281,10.509-7.438
						C2381.676,649.413,2383.265,649.67,2384.799,650.271z M2475.951,698.157c10.823,7.305,21.463,15.153,31.627,23.323
						c5.042,4.057,5.844,11.429,1.79,16.473c-4.061,5.049-11.434,5.849-16.471,1.787c-9.657-7.762-19.769-15.22-30.053-22.165
						c-5.364-3.62-6.776-10.902-3.156-16.266c2.183-3.23,5.695-5.027,9.314-5.152C2471.39,696.076,2473.823,696.72,2475.951,698.157
						z M2554.505,764.772c8.98,9.494,17.659,19.474,25.795,29.656c4.039,5.058,3.213,12.426-1.84,16.466
						c-5.062,4.044-12.429,3.213-16.466-1.84c-7.73-9.679-15.976-19.156-24.512-28.18c-4.446-4.701-4.24-12.117,0.46-16.561
						c2.16-2.043,4.888-3.104,7.642-3.199C2548.827,761.003,2552.1,762.231,2554.505,764.772z M2616.656,846.936
						c6.686,11.226,12.97,22.869,18.676,34.605c2.83,5.818,0.406,12.831-5.414,15.66c-5.809,2.825-12.828,0.402-15.657-5.417
						c-5.417-11.141-11.383-22.196-17.736-32.861c-3.311-5.559-1.489-12.747,4.07-16.057c1.756-1.045,3.673-1.578,5.58-1.644
						C2610.306,841.078,2614.388,843.131,2616.656,846.936z M2659.254,940.797c4.038,12.393,7.599,25.124,10.584,37.842
						c1.479,6.3-2.429,12.608-8.729,14.085c-6.28,1.472-12.604-2.427-14.083-8.727c-2.835-12.082-6.218-24.173-10.052-35.947
						c-2.005-6.149,1.359-12.763,7.51-14.766c1.071-0.349,2.156-0.537,3.229-0.574
						C2652.801,932.534,2657.6,935.716,2659.254,940.797z M2680.182,1041.615c0.916,9.562,1.549,19.27,1.88,28.852
						c0.12,3.471,0.2,6.93,0.244,10.386c0.082,6.467-5.013,11.904-11.565,11.861c-6.469,0.086-11.781-5.093-11.865-11.565
						c-0.042-3.282-0.117-6.576-0.231-9.874c-0.315-9.111-0.915-18.335-1.785-27.427c-0.618-6.44,4.104-12.161,10.544-12.778
						c0.242-0.022,0.484-0.04,0.724-0.048C2674.268,1030.811,2679.59,1035.417,2680.182,1041.615z"/>
					<path style="fill:#BDD0FB;" d="M1939.071,710.279c-2.328,0.08-4.652,0.852-6.65,2.359c-5.061,3.824-10.135,7.828-15.084,11.9
						c-4.998,4.111-5.716,11.494-1.606,16.49c4.113,4.996,11.49,5.721,16.49,1.606c4.702-3.867,9.523-7.669,14.326-11.301
						c5.161-3.897,6.185-11.244,2.284-16.408C1946.439,711.76,1942.753,710.151,1939.071,710.279z"/>
				</g>
				<g>
					<path style="fill:#BDD0FB;" d="M1911.187,909.182c-1.413,1.861-1.492,4.412-0.194,6.355l37.012,55.422
						c-12.686,28.42-20.932,59.067-23.958,90.952l-59.454,30.016c-2.085,1.053-3.272,3.313-2.957,5.628l10.797,79.205
						c0.314,2.315,2.065,4.176,4.355,4.631l65.319,13.009c11.45,29.912,27.597,57.235,47.427,81.223l-20.829,63.305
						c-0.729,2.219,0.029,4.657,1.888,6.07l63.641,48.373c1.859,1.413,4.412,1.492,6.355,0.194l55.421-37.012
						c28.42,12.688,59.067,20.934,90.953,23.959l30.016,59.454c1.053,2.086,3.312,3.274,5.627,2.958l79.207-10.796
						c2.315-0.316,4.174-2.066,4.63-4.356l13.009-65.32c29.912-11.449,57.235-27.597,81.222-47.428l63.305,20.83
						c2.219,0.73,4.657-0.027,6.071-1.888l48.373-63.641c1.413-1.859,1.491-4.412,0.195-6.353l-37.013-55.422
						c12.688-28.419,20.933-59.066,23.958-90.952l59.454-30.016c2.086-1.052,3.274-3.312,2.958-5.627l-10.797-79.207
						c-0.316-2.315-2.065-4.174-4.355-4.63l-65.319-13.009c-11.449-29.912-27.597-57.235-47.427-81.223l20.829-63.305
						c0.731-2.218-0.027-4.656-1.888-6.071l-63.642-48.373c-1.86-1.413-4.411-1.491-6.354-0.194l-55.421,37.013
						c-28.42-12.687-59.067-20.932-90.953-23.959l-30.016-59.454c-1.053-2.084-3.312-3.272-5.627-2.957l-79.206,10.797
						c-2.314,0.316-4.175,2.064-4.63,4.356l-13.009,65.318c-29.912,11.45-57.234,27.598-81.222,47.428l-63.305-20.829
						c-2.219-0.73-4.657,0.029-6.07,1.888L1911.187,909.182z"/>
					
						<linearGradient id="SVGID_00000039107306767379068290000004289504696328596617_" gradientUnits="userSpaceOnUse" x1="2134.448" y1="1089.7561" x2="2295.1621" y2="1089.7561">
						<stop  offset="0" style="stop-color:#DAE3FE"/>
						<stop  offset="1" style="stop-color:#E9EFFD"/>
					</linearGradient>
					<path style="fill:url(#SVGID_00000039107306767379068290000004289504696328596617_);" d="M2223.77,1009.902
						c44.029,4.945,75.829,44.784,70.885,88.818c-2.393,21.33-12.951,40.45-29.727,53.837
						c-16.771,13.387-37.756,19.447-59.088,17.046c-44.03-4.945-75.829-44.784-70.886-88.817
						c4.499-40.058,37.879-69.99,77.024-71.342C2215.859,1009.309,2219.801,1009.457,2223.77,1009.902z M2253.236,1137.904
						c12.863-10.266,20.956-24.924,22.793-41.28c3.789-33.755-20.592-64.307-54.35-68.096
						c-33.767-3.802-64.307,20.592-68.098,54.352c-3.789,33.755,20.592,64.307,54.35,68.096c3.061,0.343,6.108,0.458,9.131,0.353
						C2230.191,1150.876,2242.781,1146.246,2253.236,1137.904z"/>
					
						<linearGradient id="SVGID_00000048479469811506311190000016672884520143552701_" gradientUnits="userSpaceOnUse" x1="2018.4856" y1="1090.8806" x2="2413.6807" y2="1090.8806">
						<stop  offset="0" style="stop-color:#DAE3FE"/>
						<stop  offset="1" style="stop-color:#E9EFFD"/>
					</linearGradient>
					<path style="fill:url(#SVGID_00000048479469811506311190000016672884520143552701_);" d="M2209.615,893.399
						c-6.723,0.232-13.474,0.804-20.23,1.724l0,0c-2.126,0.289-4.249,0.614-6.366,0.971c-10.437,1.766-20.716,4.36-30.681,7.74
						c-0.135,0.046-0.271,0.092-0.407,0.137c-0.385,0.132-0.769,0.265-1.154,0.402c-0.749,0.259-1.495,0.528-2.239,0.796
						c-1.958,0.709-3.155,2.586-3.089,4.562c0.017,0.48,0.109,0.967,0.281,1.442c0.881,2.433,3.571,3.682,6.002,2.806
						c12.52-4.54,25.613-7.758,38.917-9.568c66.079-9.018,128.942,17.605,169.157,65.065c22.372,26.395,37.733,59.241,42.741,95.994
						c0.88,6.445,1.427,12.887,1.646,19.299c1.486,43.157-11.806,85.162-38.29,120.003c-30.419,40.023-74.606,65.805-124.414,72.594
						c-102.871,14.011-197.884-58.24-211.898-161.06c-0.865-6.34-1.405-12.7-1.622-19.052c-0.946-27.529,4.142-54.96,14.996-80.304
						c0.28-0.655,0.4-1.337,0.375-2.005c-0.061-1.756-1.114-3.409-2.839-4.146c-2.384-1.012-5.135,0.076-6.154,2.465
						c-11.394,26.609-16.739,55.408-15.746,84.309c0.228,6.668,0.795,13.343,1.7,19.997
						c14.713,107.952,114.538,183.792,222.451,169.085c52.292-7.127,98.676-34.193,130.611-76.21
						c27.805-36.576,41.757-80.674,40.199-125.981c-0.232-6.732-0.807-13.494-1.727-20.258
						c-7.13-52.294-34.194-98.68-76.208-130.615C2299.042,905.784,2254.931,891.834,2209.615,893.399z"/>
				</g>
			</g>
			<g>
				<g style="opacity:0.3;">
					<path style="fill:#BDD0FB;" d="M1348.6,747.301c-3.128,0.108-5.94,2.248-6.756,5.437c-1.526,5.95-2.893,12.028-4.061,18.064
						c-0.759,3.922,1.804,7.715,5.73,8.478c3.926,0.776,7.719-1.808,8.478-5.73c1.113-5.752,2.415-11.545,3.87-17.224
						c0.994-3.867-1.341-7.809-5.212-8.807C1349.963,747.346,1349.275,747.278,1348.6,747.301z"/>
					<path style="fill:#BDD0FB;" d="M1340.526,802.271c3.986,0.272,7.001,3.718,6.732,7.708
						c-0.674,10.063-0.841,20.279-0.493,30.357c0.073,2.125,0.172,4.258,0.292,6.396c0.219,3.987-2.835,7.402-6.825,7.624
						c-3.781,0.06-7.402-2.834-7.628-6.828c-0.123-2.237-0.225-4.468-0.302-6.693c-0.365-10.565-0.19-21.276,0.521-31.829
						c0.249-3.734,3.296-6.618,6.961-6.745C1340.026,802.253,1340.274,802.259,1340.526,802.271z M1351.325,883.231
						c2.158,12.037,5.08,24.048,8.689,35.696c1.182,3.82-0.951,7.867-4.771,9.052c-3.799,1.171-7.871-0.951-9.053-4.771
						c-3.783-12.208-6.849-24.8-9.109-37.422c-0.705-3.935,1.912-7.695,5.847-8.404c0.344-0.061,0.693-0.094,1.035-0.106
						C1347.503,877.155,1350.682,879.647,1351.325,883.231z M1373.058,953.285c5.033,11.125,10.82,22.047,17.2,32.475
						c2.083,3.406,1.011,7.863-2.396,9.946c-3.421,2.09-7.863,1.021-9.95-2.393c-6.692-10.933-12.758-22.397-18.04-34.058
						c-1.646-3.641-0.034-7.932,3.607-9.578c0.888-0.398,1.814-0.607,2.732-0.639C1369.055,948.94,1371.81,950.535,1373.058,953.285
						z M1411.339,1015.86c7.62,9.565,15.905,18.746,24.617,27.27c2.857,2.8,2.906,7.38,0.109,10.234
						c-2.79,2.847-7.373,2.906-10.231,0.113c-9.14-8.947-17.822-18.567-25.816-28.599c-2.491-3.124-1.972-7.681,1.152-10.172
						c1.263-0.999,2.754-1.516,4.252-1.568C1407.636,1013.061,1409.854,1013.995,1411.339,1015.86z M1463.737,1067.193
						c9.713,7.421,19.973,14.307,30.502,20.477c3.446,2.016,4.603,6.451,2.583,9.901c-2.02,3.449-6.452,4.614-9.901,2.583
						c-11.034-6.463-21.79-13.685-31.972-21.458c-3.173-2.429-3.783-6.969-1.358-10.142c1.37-1.794,3.415-2.769,5.506-2.842
						C1460.711,1065.657,1462.354,1066.138,1463.737,1067.193z M1527.008,1104.25c11.215,4.831,22.834,9.004,34.544,12.404
						c3.835,1.112,6.045,5.13,4.93,8.965c-1.116,3.835-5.116,6.038-8.968,4.934c-12.277-3.564-24.47-7.944-36.234-13.011
						c-3.668-1.584-5.363-5.839-3.783-9.506c1.146-2.655,3.692-4.278,6.4-4.372
						C1524.933,1103.628,1525.993,1103.811,1527.008,1104.25z M1597.391,1124.699c12.019,1.925,24.321,3.12,36.564,3.546
						c3.993,0.145,7.117,3.495,6.975,7.487c-0.137,3.992-3.482,7.056-7.486,6.983c-12.835-0.455-25.732-1.706-38.338-3.725
						c-3.946-0.634-6.634-4.345-6.003-8.291c0.555-3.47,3.499-5.968,6.888-6.085
						C1596.451,1124.598,1596.919,1124.624,1597.391,1124.699z M1715.619,1127.376c0.835,3.909-1.655,7.75-5.565,8.585
						c-10.819,2.311-21.951,4.067-33.055,5.221c-1.687,0.185-3.368,0.342-5.053,0.492c-3.95,0.462-7.492-2.598-7.832-6.588
						c-0.346-3.983,2.601-7.485,6.584-7.835c1.58-0.133,3.161-0.287,4.771-0.462c10.628-1.102,21.247-2.777,31.564-4.979
						c0.425-0.092,0.851-0.142,1.267-0.157C1711.744,1121.535,1714.877,1123.894,1715.619,1127.376z"/>
				</g>
				<g style="opacity:0.3;">
					<path style="fill:#BDD0FB;" d="M1638.221,517.878c12.608-0.273,25.341,0.228,37.85,1.472c3.974,0.4,6.878,3.941,6.481,7.921
						c-0.396,3.981-3.967,6.84-7.922,6.481c-11.927-1.193-24.073-1.664-36.102-1.405c-3.995,0.089-7.304-3.085-7.389-7.077
						c-0.084-3.963,3.034-7.253,6.981-7.389C1638.154,517.88,1638.189,517.879,1638.221,517.878z M1608.629,527.116
						c0.564,3.954-2.187,7.62-6.142,8.181c-11.901,1.698-23.819,4.131-35.424,7.24c-3.84,1.017-7.828-1.257-8.859-5.124
						c-1.035-3.86,1.257-7.821,5.117-8.859c12.162-3.255,24.652-5.808,37.124-7.582c0.264-0.037,0.521-0.061,0.782-0.07
						C1604.871,520.776,1608.101,523.415,1608.629,527.116z M1713.49,525.418c12.307,2.785,24.549,6.343,36.383,10.58
						c3.762,1.348,5.722,5.494,4.374,9.253c-1.344,3.766-5.473,5.711-9.249,4.378c-11.29-4.044-22.964-7.438-34.705-10.101
						c-3.898-0.883-6.341-4.759-5.46-8.65c0.743-3.278,3.599-5.526,6.805-5.637C1712.246,525.22,1712.866,525.276,1713.49,525.418z
						 M1536.786,544.587c1.499,3.703-0.292,7.922-3.995,9.422c-11.143,4.507-22.116,9.744-32.62,15.572
						c-3.493,1.931-7.899,0.669-9.837-2.813c-1.938-3.497-0.679-7.903,2.817-9.841c11.014-6.115,22.526-11.61,34.213-16.334
						c0.809-0.325,1.641-0.495,2.463-0.523C1532.78,539.967,1535.615,541.693,1536.786,544.587z M1784.68,550.916
						c11.25,5.65,22.272,12.05,32.765,19.02c3.329,2.211,4.233,6.705,2.022,10.034c-2.211,3.329-6.701,4.241-10.034,2.023
						c-10.005-6.654-20.517-12.754-31.249-18.139c-3.569-1.793-5.013-6.141-3.217-9.717c1.227-2.447,3.662-3.895,6.222-3.983
						C1782.358,550.113,1783.558,550.354,1784.68,550.916z M1847.685,592.755c9.588,8.197,18.764,17.05,27.272,26.308
						c2.703,2.94,2.511,7.514-0.432,10.218c-2.937,2.704-7.518,2.515-10.225-0.432c-8.114-8.827-16.87-17.271-26.02-25.093
						c-3.038-2.596-3.394-7.165-0.798-10.203c1.372-1.603,3.295-2.462,5.255-2.529
						C1844.481,590.963,1846.254,591.532,1847.685,592.755z M1898.863,648.479c7.354,10.26,14.14,21.062,20.171,32.097
						c1.917,3.511,0.626,7.904-2.881,9.821c-3.505,1.917-7.902,0.62-9.818-2.878c-5.748-10.527-12.22-20.825-19.236-30.602
						c-2.328-3.249-1.583-7.772,1.667-10.098c1.204-0.868,2.582-1.305,3.959-1.352
						C1895.062,645.386,1897.396,646.436,1898.863,648.479z"/>
					<path style="fill:#BDD0FB;" d="M1464.907,576.115c-1.395,0.048-2.79,0.5-4.004,1.383c-5.008,3.645-9.927,7.456-14.63,11.323
						c-3.084,2.539-3.531,7.101-0.992,10.188c2.542,3.072,7.097,3.523,10.188,0.991c4.482-3.69,9.179-7.324,13.955-10.805
						c3.231-2.353,3.941-6.881,1.588-10.109C1469.543,577.072,1467.227,576.035,1464.907,576.115z"/>
				</g>
				<g>
					<path style="fill:#BDD0FB;" d="M1441.776,711.915c-0.945,1.245-0.998,2.952-0.13,4.252l24.767,37.086
						c-8.489,19.017-14.006,39.525-16.031,60.861l-39.784,20.086c-1.396,0.705-2.19,2.217-1.979,3.766l7.225,53
						c0.21,1.549,1.382,2.794,2.913,3.099l43.709,8.704c7.661,20.016,18.466,38.3,31.736,54.351l-13.937,42.36
						c-0.489,1.485,0.019,3.116,1.263,4.062l42.586,32.369c1.244,0.946,2.952,0.999,4.252,0.13l37.084-24.767
						c19.017,8.49,39.525,14.007,60.862,16.032l20.085,39.784c0.705,1.396,2.217,2.19,3.765,1.979l53.002-7.224
						c1.549-0.211,2.793-1.382,3.098-2.915l8.705-43.709c20.016-7.661,38.3-18.466,54.35-31.736l42.361,13.939
						c1.484,0.488,3.116-0.019,4.062-1.263l32.37-42.587c0.945-1.244,0.997-2.951,0.13-4.251l-24.767-37.087
						c8.49-19.017,14.008-39.524,16.032-60.861l39.784-20.086c1.396-0.703,2.19-2.216,1.979-3.765l-7.224-53.002
						c-0.211-1.549-1.382-2.793-2.915-3.098l-43.708-8.704c-7.661-20.016-18.467-38.3-31.737-54.351l13.938-42.36
						c0.489-1.484-0.019-3.116-1.263-4.062l-42.586-32.369c-1.245-0.946-2.952-0.998-4.252-0.13l-37.085,24.767
						c-19.017-8.49-39.525-14.007-60.862-16.032l-20.085-39.784c-0.705-1.395-2.216-2.19-3.766-1.979l-53.001,7.225
						c-1.549,0.211-2.793,1.382-3.098,2.915l-8.705,43.707c-20.016,7.661-38.299,18.468-54.35,31.737l-42.361-13.938
						c-1.484-0.489-3.116,0.019-4.062,1.263L1441.776,711.915z"/>
					
						<linearGradient id="SVGID_00000070800280479247387040000001299127601389605778_" gradientUnits="userSpaceOnUse" x1="1590.2069" y1="832.741" x2="1699.6838" y2="832.741">
						<stop  offset="0" style="stop-color:#DAE3FE"/>
						<stop  offset="1" style="stop-color:#E9EFFD"/>
					</linearGradient>
					<path style="fill:url(#SVGID_00000070800280479247387040000001299127601389605778_);" d="M1651.045,778.353
						c14.533,1.627,27.558,8.82,36.678,20.249c9.12,11.422,13.244,25.718,11.611,40.248c-3.366,29.989-30.463,51.607-60.501,48.288
						c-29.993-3.376-51.65-30.514-48.281-60.497c1.63-14.53,8.82-27.555,20.246-36.675c9.289-7.413,20.474-11.525,32.14-11.928
						C1645.619,777.947,1648.331,778.051,1651.045,778.353z M1684.954,837.24c1.2-10.69-1.832-21.205-8.542-29.614
						c-6.707-8.402-16.29-13.692-26.976-14.893l0,0c-10.689-1.186-21.201,1.836-29.61,8.546
						c-8.405,6.703-13.691,16.29-14.892,26.972c-2.477,22.061,13.453,42.023,35.514,44.506c1.991,0.221,3.963,0.295,5.909,0.228
						C1665.971,872.308,1682.701,857.306,1684.954,837.24z"/>
					
						<linearGradient id="SVGID_00000095307685105407394470000004162379699663227271_" gradientUnits="userSpaceOnUse" x1="1509.4722" y1="833.5176" x2="1782.1213" y2="833.5176">
						<stop  offset="0" style="stop-color:#DAE3FE"/>
						<stop  offset="1" style="stop-color:#E9EFFD"/>
					</linearGradient>
					<path style="fill:url(#SVGID_00000095307685105407394470000004162379699663227271_);" d="M1641.189,697.269
						c-4.576,0.158-9.18,0.551-13.811,1.177c-9.195,1.251-18.272,3.438-27,6.511c-0.391,0.141-0.782,0.282-1.174,0.423
						c-3.024,1.094-4.872,3.993-4.77,7.044c0.026,0.741,0.168,1.493,0.434,2.226c1.361,3.757,5.513,5.679,9.267,4.333
						c8.122-2.946,16.598-5.027,25.191-6.194l0.004,0c0.471-0.065,0.946-0.124,1.415-0.183c20.363-2.577,40.596,0.019,59.22,7.295
						c10.109,3.95,19.747,9.288,28.67,15.944c0.073,0.054,0.145,0.108,0.218,0.162c0.222,0.17,0.443,0.332,0.661,0.501
						c25.907,19.695,42.599,48.299,46.994,80.544c0.572,4.173,0.924,8.34,1.068,12.492c0.961,27.938-7.645,55.132-24.789,77.692
						c-19.695,25.908-48.299,42.593-80.541,46.987c-32.225,4.38-64.273-4.031-90.184-23.719
						c-25.907-19.694-42.599-48.298-46.993-80.544c-0.563-4.102-0.91-8.22-1.052-12.33c-0.612-17.825,2.681-35.58,9.708-51.986
						c0.432-1.012,0.619-2.065,0.58-3.096c-0.094-2.712-1.72-5.265-4.382-6.403c-3.678-1.563-7.926,0.125-9.502,3.807
						c-7.861,18.358-11.548,38.226-10.867,58.163c0.159,4.604,0.547,9.208,1.173,13.797c4.919,36.081,23.591,68.081,52.581,90.115
						c28.986,22.028,64.8,31.482,100.891,26.538c36.077-4.915,68.078-23.584,90.109-52.577
						c19.184-25.233,28.81-55.658,27.734-86.915c-0.16-4.64-0.555-9.307-1.19-13.972
						C1771.325,745.253,1710.179,694.886,1641.189,697.269z"/>
				</g>
			</g>
		</g>
		<g>
			<g>
				<path style="fill:#7D97F4;" d="M1416.028,1910.862c0,0,7.511-315.804-137.945-400.328
					c-145.456-84.523-422.02-137.367-432.386-590.832c-6.07-265.479-12.638-381.55-17.041-432.163
					c-1.717-19.743,15.827-35.679,35.302-32.011c137.759,25.952,585.279,132.77,679.105,438.222
					C1654.294,1255.868,1416.028,1910.862,1416.028,1910.862z"/>
				<path style="opacity:0.43;fill:#FFFFFF;" d="M970.496,581.697c151.218,134.865,326.075,373.549,419.274,612.234
					c11.964,39.337,46.957,122.99,62.154,271.62c13.573,123.96,6.825,254.949-9.632,341.657c-1.041,5.482-6.328,9.082-11.81,8.041
					c-9.426-1.788-8.172-11.926-8.087-11.606c18.796-148.142,10.994-332.531-32.075-498.902
					c-55.024-204.285-177.749-402.347-304.686-570.331l-13.063-16.541c-98.346-126.299-119.05-127.23-109.856-136.034
					C964.888,579.755,968.286,579.736,970.496,581.697z"/>
			</g>
			<g>
				<path style="fill:#91B3FA;" d="M1015.649,2391.181c17.532,17.057-111.209-329.112-38.666-783.037
					c34.185-213.902,117.006-468.837,33.24-604.873c-69.716-113.219-414.656-168.812-528.41-184.276
					c-14.214-1.933-24.266,13.537-16.69,25.718c37.355,60.053,114.164,198.01,109.28,310.16
					c-6.437,147.822,94.205,276.062,201.886,337.05c107.682,60.987,164.428,104.572,160.358,307.313
					C932.578,2001.976,965.833,2342.716,1015.649,2391.181z"/>
				<path style="opacity:0.43;fill:#FFFFFF;" d="M614.093,925.557c135.087,50.482,261.693,160.989,298.011,302.557l3.388,13.484
					c7.697,31.535,38.971,248.055,39.682,419.301c0.008,2.135-1.715,3.873-3.85,3.882c-3.626,0.014-4.088-4.122-3.88-3.702
					c-7.148-98.945-22.218-226.355-35.978-322.446c-14.249-104.605-24.886-175.77-105.546-266.958
					c-90.467-99.382-194.466-140.546-194.169-140.377c-1.565-0.694-2.272-2.527-1.577-4.092
					C610.841,925.699,612.57,924.991,614.093,925.557z"/>
			</g>
		</g>
		<g>
			<g>
				
					<linearGradient id="SVGID_00000145742132803900187370000010484481576566036888_" gradientUnits="userSpaceOnUse" x1="1814.8818" y1="2864.135" x2="1964.8856" y2="1196.199">
					<stop  offset="0" style="stop-color:#09005D"/>
					<stop  offset="1" style="stop-color:#1A0F91"/>
				</linearGradient>
				<path style="fill:url(#SVGID_00000145742132803900187370000010484481576566036888_);" d="M620.535,2749.956
					c0,25.217,20.652,45.849,45.893,45.849h2481.714c25.241,0,45.893-20.632,45.893-45.849l20.65-1426.173
					c0-25.216-29.71-74.447-84.158-70.747l-2425.405-62.757c-31.671-0.82-62.292,11.37-84.719,33.724s-34.699,52.918-33.95,84.559
					L620.535,2749.956z"/>
				<path style="fill:#91B3FA;" d="M665.844,2705.97c0,23.879,19.538,43.418,43.418,43.418h2379.033
					c23.88,0,43.418-19.539,43.418-43.418l19.487-1294.693c-2.295-77.912-70.602-105.914-112.008-104.26l-2324.53-62.363
					c-22.25-0.597-43.762,7.976-59.521,23.694c-15.759,15.718-24.426,37.23-23.868,59.481L665.844,2705.97z"/>
				<g>
					<path style="fill:#FFFFFF;" d="M3106.006,2090.9c-0.032,0-0.064,0-0.095,0c-3.515-0.051-6.323-2.94-6.269-6.459l1.54-104.997
						c0.051-3.48,2.89-6.269,6.357-6.269c0.032,0,0.063,0,0.095,0c3.515,0.051,6.323,2.941,6.269,6.459l-1.54,104.997
						C3112.312,2088.112,3109.473,2090.9,3106.006,2090.9z"/>
					<path style="fill:#FFFFFF;" d="M3109.784,1833.602c-0.032,0-0.063,0-0.095,0c-3.515-0.051-6.323-2.947-6.269-6.459
						l5.903-402.143c-0.111-23.887-7.361-42.959-21.552-56.557c-26.491-25.379-68.548-24.084-70.32-24.001l-742.971-19.924
						c-3.512-0.089-6.285-3.017-6.189-6.529c0.092-3.512,2.791-6.504,6.532-6.186l742.53,19.924
						c4.621-0.273,49.399-1.048,79.221,27.526c16.776,16.075,25.347,38.221,25.474,65.811l-5.906,402.27
						C3116.091,1830.814,3113.252,1833.602,3109.784,1833.602z"/>
				</g>
				
					<linearGradient id="SVGID_00000181053264631135590190000009900721116742252469_" gradientUnits="userSpaceOnUse" x1="1866.4413" y1="1553.1346" x2="1859.7195" y2="3025.333">
					<stop  offset="0" style="stop-color:#09005D"/>
					<stop  offset="1" style="stop-color:#1A0F91"/>
				</linearGradient>
				<path style="fill:url(#SVGID_00000181053264631135590190000009900721116742252469_);" d="M472.49,2914.195h2776.045
					c3.11,0,5.654-2.544,5.654-5.654V2794.54c0-3.11-2.544-5.654-5.654-5.654H472.49c-3.109,0-5.654,2.544-5.654,5.654v114.001
					C466.837,2911.651,469.381,2914.195,472.49,2914.195z"/>
			</g>
			<g>
				<path style="fill:#BDD0FB;" d="M3002.514,2658.758H753.825c-22.457,0-40.83-18.374-40.83-40.83l-13.485-1205.8
					c-0.479-42.813,34.508-77.559,77.316-76.786l2225.689,40.216c22.457,0,40.83,18.374,40.83,40.83v1201.539
					C3043.344,2640.385,3024.971,2658.758,3002.514,2658.758z"/>
				
					<linearGradient id="SVGID_00000167364559403200074590000008323860843530497940_" gradientUnits="userSpaceOnUse" x1="1884.5734" y1="2460.4917" x2="1817.0537" y2="4175.4731">
					<stop  offset="0" style="stop-color:#4F52FF"/>
					<stop  offset="1" style="stop-color:#4042E2"/>
				</linearGradient>
				<path style="fill:url(#SVGID_00000167364559403200074590000008323860843530497940_);" d="M3030.003,2690.115H725.2
					c-6.741,0-12.205-5.464-12.205-12.205v-108.648h2330.35v107.512C3043.344,2684.143,3037.371,2690.115,3030.003,2690.115z"/>
				<rect x="712.995" y="2607.645" style="fill:#7D97F4;" width="2330.35" height="34.417"/>
				<rect x="712.995" y="2608.306" style="fill:#91B3FA;" width="747.168" height="34.417"/>
				
					<ellipse transform="matrix(0.1602 -0.9871 0.9871 0.1602 -1375.9438 3637.0327)" style="fill:#BDD0FB;" cx="1449.438" cy="2627.13" rx="31.628" ry="31.628"/>
			</g>
			<g>
				<defs>
					
						<rect id="SVGID_00000088850134412078450850000011187840279447298227_" x="815.005" y="1289.512" width="2228.34" height="1279.75"/>
				</defs>
				<clipPath id="SVGID_00000103263678015744452300000009579437610578955664_">
					<use xlink:href="#SVGID_00000088850134412078450850000011187840279447298227_"  style="overflow:visible;"/>
				</clipPath>
				<g style="clip-path:url(#SVGID_00000103263678015744452300000009579437610578955664_);">
					
						<linearGradient id="SVGID_00000038408835296512511490000002054890988999988868_" gradientUnits="userSpaceOnUse" x1="500.5142" y1="2028.7249" x2="2034.2428" y2="2049.783">
						<stop  offset="0" style="stop-color:#FEBBBA"/>
						<stop  offset="1" style="stop-color:#FF928E"/>
					</linearGradient>
					<path style="fill:url(#SVGID_00000038408835296512511490000002054890988999988868_);" d="M906.903,2560.951h876.57V1519.693
						H913.797c-3.808,0-6.894,3.087-6.894,6.894V2560.951z"/>
					
						<linearGradient id="SVGID_00000001662621086895906660000017081499007077781393_" gradientUnits="userSpaceOnUse" x1="936.8505" y1="1108.7606" x2="1373.4237" y2="1874.4436">
						<stop  offset="0" style="stop-color:#FF928E"/>
						<stop  offset="1" style="stop-color:#FE7062"/>
					</linearGradient>
					<path style="fill:url(#SVGID_00000001662621086895906660000017081499007077781393_);" d="M1048.811,2561.017h842.552V1529.298
						c0-4.914-3.984-8.898-8.898-8.898h-833.654V2561.017z"/>
					<path style="opacity:0.37;fill:#FFFFFF;" d="M1496.542,1821.064l-97.333,10.5c-13.62,1.471-25.241-9.762-24.237-23.424
						l21.278-289.535c40.802-1.294,81.047-2.237,119.881-2.9v283.542C1516.131,1810.455,1507.686,1819.861,1496.542,1821.064z"/>
					<path style="fill:#FFFFFF;" d="M1456.649,1770.881c-0.3,5.208-4.615,9.224-9.765,9.224c-0.192,0-0.383-0.007-0.574-0.019
						c-5.399-0.312-9.523-4.94-9.204-10.339l14.676-252.696c6.581-0.163,13.109-0.309,19.635-0.454L1456.649,1770.881z"/>
					<g>
						<path style="fill:#FFFFFF;" d="M1268.263,1600.019c10.186-0.32,22.547,5.888,23.699,14.868
							c3.892,30.351,2.911,87.831,3.828,110.503c0.186,4.589-3.983,14.131-9.148,14.211l-170.976,2.625
							c-5.449,0.084-9.426-9.375-9.136-14.225l6.364-106.485c0.559-9.351,9.185-16.898,19.69-17.229L1268.263,1600.019z"/>
						<g>
							
								<linearGradient id="SVGID_00000065047748719183014200000004935820522312866456_" gradientUnits="userSpaceOnUse" x1="653.0283" y1="1618.0513" x2="444.7533" y2="1920.7004" gradientTransform="matrix(-1 0 0 1 1820.5695 0)">
								<stop  offset="0" style="stop-color:#09005D"/>
								<stop  offset="1" style="stop-color:#1A0F91"/>
							</linearGradient>
							<path style="fill:url(#SVGID_00000065047748719183014200000004935820522312866456_);" d="M1204.37,1718.163
								c1.703,0,3.14-1.322,3.248-3.051l5.034-79.367c0.114-1.792-1.246-3.337-3.044-3.452c-1.888-0.146-3.337,1.252-3.452,3.045
								l-5.034,79.368c-0.114,1.792,1.246,3.336,3.045,3.451C1204.236,1718.163,1204.306,1718.163,1204.37,1718.163z"/>
							
								<linearGradient id="SVGID_00000183961283212448199800000007159156146060718012_" gradientUnits="userSpaceOnUse" x1="660.5173" y1="1623.2053" x2="452.2422" y2="1925.8545" gradientTransform="matrix(-1 0 0 1 1820.5695 0)">
								<stop  offset="0" style="stop-color:#09005D"/>
								<stop  offset="1" style="stop-color:#1A0F91"/>
							</linearGradient>
							<path style="fill:url(#SVGID_00000183961283212448199800000007159156146060718012_);" d="M1194.009,1718.163
								c1.748,0,3.197-1.385,3.255-3.146l2.637-80.886c0.057-1.799-1.354-3.305-3.146-3.363c-2.073-0.101-3.299,1.354-3.363,3.146
								l-2.638,80.887c-0.057,1.799,1.354,3.305,3.146,3.363C1193.901,1718.163,1193.977,1718.163,1194.009,1718.163z"/>
							
								<linearGradient id="SVGID_00000000187198746085774870000016511680061337987513_" gradientUnits="userSpaceOnUse" x1="669.5533" y1="1629.4233" x2="461.2781" y2="1932.0728" gradientTransform="matrix(-1 0 0 1 1820.5695 0)">
								<stop  offset="0" style="stop-color:#09005D"/>
								<stop  offset="1" style="stop-color:#1A0F91"/>
							</linearGradient>
							<path style="fill:url(#SVGID_00000000187198746085774870000016511680061337987513_);" d="M1179.962,1718.156
								c-1.799-0.083-3.184-1.608-3.095-3.4c1.29-27.172,3.75-78.999,3.788-80.766c0.013-1.78,1.469-3.223,3.255-3.223
								c1.799,0,3.255,1.456,3.255,3.254c0,1.341-3.166,67.743-3.801,81.039c-0.083,1.748-1.519,3.102-3.248,3.102
								C1180.064,1718.163,1180.013,1718.163,1179.962,1718.156z M1180.591,1634.022h0.064H1180.591z"/>
							
								<linearGradient id="SVGID_00000034061228522165667120000005488311556903728299_" gradientUnits="userSpaceOnUse" x1="685.1827" y1="1640.1793" x2="476.9082" y2="1942.828" gradientTransform="matrix(-1 0 0 1 1820.5695 0)">
								<stop  offset="0" style="stop-color:#09005D"/>
								<stop  offset="1" style="stop-color:#1A0F91"/>
							</linearGradient>
							<path style="fill:url(#SVGID_00000034061228522165667120000005488311556903728299_);" d="M1158.422,1721.417
								c3.49,0,6.375-2.765,6.496-6.28c2.752-78.37,2.269-80.137,1.951-81.307c-0.941-3.477-4.551-5.516-7.99-4.57
								c-3.185,0.871-5.174,3.96-4.741,7.144c0.209,4.71-1.246,50.308-2.224,78.275c-0.127,3.591,2.682,6.61,6.273,6.731
								C1158.263,1721.417,1158.345,1721.417,1158.422,1721.417z"/>
							
								<linearGradient id="SVGID_00000020364230071063475230000002698957215900179847_" gradientUnits="userSpaceOnUse" x1="695.4885" y1="1647.2715" x2="487.2137" y2="1949.9204" gradientTransform="matrix(-1 0 0 1 1820.5695 0)">
								<stop  offset="0" style="stop-color:#09005D"/>
								<stop  offset="1" style="stop-color:#1A0F91"/>
							</linearGradient>
							<path style="fill:url(#SVGID_00000020364230071063475230000002698957215900179847_);" d="M1144.317,1718.163
								c1.799,0,3.255-1.455,3.255-3.255v-79.367c0-1.799-1.455-3.255-3.255-3.255c-1.799,0-3.254,1.455-3.254,3.255v79.367
								C1141.064,1716.708,1142.519,1718.163,1144.317,1718.163z"/>
							
								<linearGradient id="SVGID_00000026155284510919879900000003839847810572862373_" gradientUnits="userSpaceOnUse" x1="701.8864" y1="1651.6747" x2="493.6127" y2="1954.322" gradientTransform="matrix(-1 0 0 1 1820.5695 0)">
								<stop  offset="0" style="stop-color:#09005D"/>
								<stop  offset="1" style="stop-color:#1A0F91"/>
							</linearGradient>
							<path style="fill:url(#SVGID_00000026155284510919879900000003839847810572862373_);" d="M1132.928,1718.163
								c1.767,0,3.216-1.411,3.254-3.178c0.623-27.578,2.079-72.624,3.382-78.039c0.572-1.023,0.565-2.32-0.121-3.375
								c-0.985-1.513-3-1.919-4.506-0.934c-1.773,1.162-3.458,2.263-5.263,82.196c-0.038,1.799,1.385,3.286,3.178,3.331H1132.928z"
								/>
							
								<linearGradient id="SVGID_00000120516692519356166800000009150091704249496972_" gradientUnits="userSpaceOnUse" x1="576.564" y1="1640.1809" x2="368.2893" y2="1942.8296" gradientTransform="matrix(-1 0 0 1 1820.5695 0)">
								<stop  offset="0" style="stop-color:#09005D"/>
								<stop  offset="1" style="stop-color:#1A0F91"/>
							</linearGradient>
							<path style="fill:url(#SVGID_00000120516692519356166800000009150091704249496972_);" d="M1267.04,1721.419
								c3.49,0,6.376-2.765,6.496-6.28c2.752-78.37,2.269-80.137,1.951-81.307c-0.941-3.477-4.551-5.516-7.99-4.57
								c-3.185,0.871-5.174,3.96-4.741,7.144c0.21,4.71-1.246,50.308-2.224,78.275c-0.127,3.591,2.682,6.61,6.273,6.731
								C1266.882,1721.419,1266.964,1721.419,1267.04,1721.419z"/>
							
								<linearGradient id="SVGID_00000039114537680426532580000005624444525361744278_" gradientUnits="userSpaceOnUse" x1="586.8698" y1="1647.2729" x2="378.5948" y2="1949.922" gradientTransform="matrix(-1 0 0 1 1820.5695 0)">
								<stop  offset="0" style="stop-color:#09005D"/>
								<stop  offset="1" style="stop-color:#1A0F91"/>
							</linearGradient>
							<path style="fill:url(#SVGID_00000039114537680426532580000005624444525361744278_);" d="M1252.936,1718.165
								c1.799,0,3.255-1.455,3.255-3.254v-79.367c0-1.799-1.455-3.255-3.255-3.255c-1.799,0-3.254,1.455-3.254,3.255v79.367
								C1249.683,1716.709,1251.137,1718.165,1252.936,1718.165z"/>
							
								<linearGradient id="SVGID_00000096776042018700611680000006069145248454097047_" gradientUnits="userSpaceOnUse" x1="593.2676" y1="1651.6763" x2="384.994" y2="1954.3232" gradientTransform="matrix(-1 0 0 1 1820.5695 0)">
								<stop  offset="0" style="stop-color:#09005D"/>
								<stop  offset="1" style="stop-color:#1A0F91"/>
							</linearGradient>
							<path style="fill:url(#SVGID_00000096776042018700611680000006069145248454097047_);" d="M1241.547,1718.165
								c1.767,0,3.216-1.411,3.254-3.178c0.623-27.578,2.078-72.624,3.382-78.039c0.572-1.023,0.566-2.32-0.121-3.375
								c-0.985-1.513-3-1.919-4.506-0.934c-1.774,1.163-3.458,2.263-5.263,82.196c-0.038,1.799,1.385,3.286,3.178,3.331H1241.547z"
								/>
							
								<linearGradient id="SVGID_00000183218765280406094710000007597936374623425726_" gradientUnits="userSpaceOnUse" x1="642.3118" y1="1610.6771" x2="434.0376" y2="1913.3251" gradientTransform="matrix(-1 0 0 1 1820.5695 0)">
								<stop  offset="0" style="stop-color:#09005D"/>
								<stop  offset="1" style="stop-color:#1A0F91"/>
							</linearGradient>
							<path style="fill:url(#SVGID_00000183218765280406094710000007597936374623425726_);" d="M1221.88,1725.39
								c3.439,0,6.312-2.695,6.496-6.172l4.341-83.34c0.185-3.591-2.574-6.648-6.165-6.839c-3.407-0.241-6.648,2.575-6.839,6.166
								l-4.341,83.34c-0.185,3.591,2.574,6.648,6.165,6.839C1221.651,1725.39,1221.766,1725.39,1221.88,1725.39z"/>
						</g>
					</g>
				</g>
				<path style="clip-path:url(#SVGID_00000103263678015744452300000009579437610578955664_);fill:#7D97F4;" d="M3038.817,2569.262
					H841.878v-43.532c0-6.812,5.522-12.333,12.333-12.333H3028.15c5.891,0,10.667,4.776,10.667,10.667V2569.262z"/>
				<g style="clip-path:url(#SVGID_00000103263678015744452300000009579437610578955664_);">
					
						<linearGradient id="SVGID_00000029735766018370717290000000711609463792492712_" gradientUnits="userSpaceOnUse" x1="2049.3567" y1="2145.7122" x2="2086.2969" y2="1242.3397">
						<stop  offset="0" style="stop-color:#E1473D"/>
						<stop  offset="1" style="stop-color:#E9605A"/>
					</linearGradient>
					
						<rect x="1685.315" y="1865.974" style="fill:url(#SVGID_00000029735766018370717290000000711609463792492712_);" width="724.391" height="649.776"/>
					
						<linearGradient id="SVGID_00000084511030688450764490000011137619849212593046_" gradientUnits="userSpaceOnUse" x1="1670.9194" y1="1297.3646" x2="1610.4711" y2="1707.0718">
						<stop  offset="0" style="stop-color:#E1473D"/>
						<stop  offset="1" style="stop-color:#E9605A"/>
					</linearGradient>
					<polygon style="fill:url(#SVGID_00000084511030688450764490000011137619849212593046_);" points="1697.749,2568.513 
						1364.658,2568.513 1364.866,1918.737 1685.315,1865.974 					"/>
					
						<linearGradient id="SVGID_00000034059672386459288010000013548613892654500247_" gradientUnits="userSpaceOnUse" x1="3325.7739" y1="2044.4404" x2="2778.3772" y2="2135.1135">
						<stop  offset="0" style="stop-color:#FF928E"/>
						<stop  offset="1" style="stop-color:#FE7062"/>
					</linearGradient>
					<path style="fill:url(#SVGID_00000034059672386459288010000013548613892654500247_);" d="M2392.159,2519.391l-236.758,49.122
						v-649.776l254.305-52.763v631.856C2409.706,2508.267,2402.379,2517.271,2392.159,2519.391z"/>
					
						<linearGradient id="SVGID_00000051383474544285501000000011450291638139850139_" gradientUnits="userSpaceOnUse" x1="1761.9133" y1="2836.3953" x2="1756.6527" y2="1078.9255">
						<stop  offset="0" style="stop-color:#FF928E"/>
						<stop  offset="1" style="stop-color:#FE7062"/>
					</linearGradient>
					<path style="fill:url(#SVGID_00000051383474544285501000000011450291638139850139_);" d="M2155.401,2568.513h-787.007
						c-1.948,0-3.527-1.579-3.527-3.527v-646.249h790.534V2568.513z"/>
					
						<linearGradient id="SVGID_00000093143694364638638180000000664857237032590258_" gradientUnits="userSpaceOnUse" x1="1602.6913" y1="2108.1514" x2="2529.2888" y2="1244.0216">
						<stop  offset="0" style="stop-color:#FEBBBA"/>
						<stop  offset="1" style="stop-color:#FF928E"/>
					</linearGradient>
					<path style="fill:url(#SVGID_00000093143694364638638180000000664857237032590258_);" d="M1364.866,1922.172l-82.705,174.027
						c-3.016,6.346,1.515,13.692,8.54,13.846l730.092,15.963l134.608-203.836H1364.866z"/>
					<g>
						<path style="fill:#FFFFFF;" d="M1558.725,2363.615c10.186-0.321,22.547,5.888,23.698,14.868
							c3.892,30.351,2.911,87.831,3.828,110.503c0.186,4.589-3.983,14.132-9.148,14.211l-170.976,2.625
							c-5.449,0.084-9.426-9.375-9.136-14.225l6.364-106.485c0.559-9.351,9.184-16.898,19.69-17.229L1558.725,2363.615z"/>
						<g>
							
								<linearGradient id="SVGID_00000027580461490752770040000008790291443214057143_" gradientUnits="userSpaceOnUse" x1="362.5662" y1="2381.6479" x2="154.291" y2="2684.2974" gradientTransform="matrix(-1 0 0 1 1820.5695 0)">
								<stop  offset="0" style="stop-color:#09005D"/>
								<stop  offset="1" style="stop-color:#1A0F91"/>
							</linearGradient>
							<path style="fill:url(#SVGID_00000027580461490752770040000008790291443214057143_);" d="M1494.832,2481.76
								c1.704,0,3.14-1.322,3.248-3.051l5.034-79.367c0.114-1.793-1.246-3.337-3.044-3.452c-1.888-0.146-3.337,1.252-3.452,3.045
								l-5.034,79.368c-0.114,1.792,1.246,3.336,3.045,3.451C1494.698,2481.76,1494.768,2481.76,1494.832,2481.76z"/>
							
								<linearGradient id="SVGID_00000155139610757915111030000018326559315360665743_" gradientUnits="userSpaceOnUse" x1="370.0552" y1="2386.802" x2="161.78" y2="2689.4514" gradientTransform="matrix(-1 0 0 1 1820.5695 0)">
								<stop  offset="0" style="stop-color:#09005D"/>
								<stop  offset="1" style="stop-color:#1A0F91"/>
							</linearGradient>
							<path style="fill:url(#SVGID_00000155139610757915111030000018326559315360665743_);" d="M1484.472,2481.76
								c1.747,0,3.197-1.385,3.254-3.146l2.637-80.886c0.057-1.799-1.354-3.305-3.146-3.363c-2.073-0.101-3.299,1.354-3.363,3.146
								l-2.638,80.887c-0.057,1.799,1.354,3.305,3.146,3.363C1484.363,2481.76,1484.439,2481.76,1484.472,2481.76z"/>
							
								<linearGradient id="SVGID_00000075129062773080460920000003350352307103823803_" gradientUnits="userSpaceOnUse" x1="379.0912" y1="2393.02" x2="170.8159" y2="2695.6697" gradientTransform="matrix(-1 0 0 1 1820.5695 0)">
								<stop  offset="0" style="stop-color:#09005D"/>
								<stop  offset="1" style="stop-color:#1A0F91"/>
							</linearGradient>
							<path style="fill:url(#SVGID_00000075129062773080460920000003350352307103823803_);" d="M1470.424,2481.753
								c-1.799-0.083-3.184-1.608-3.095-3.4c1.29-27.172,3.75-78.999,3.788-80.766c0.013-1.78,1.469-3.223,3.255-3.223
								c1.799,0,3.255,1.456,3.255,3.255c0,1.341-3.166,67.743-3.801,81.039c-0.083,1.748-1.519,3.102-3.248,3.102
								C1470.526,2481.76,1470.475,2481.76,1470.424,2481.753z M1471.053,2397.619h0.064H1471.053z"/>
							
								<linearGradient id="SVGID_00000106829311605612364620000016956137148687491730_" gradientUnits="userSpaceOnUse" x1="394.7206" y1="2403.7759" x2="186.4459" y2="2706.4248" gradientTransform="matrix(-1 0 0 1 1820.5695 0)">
								<stop  offset="0" style="stop-color:#09005D"/>
								<stop  offset="1" style="stop-color:#1A0F91"/>
							</linearGradient>
							<path style="fill:url(#SVGID_00000106829311605612364620000016956137148687491730_);" d="M1448.884,2485.014
								c3.49,0,6.376-2.765,6.496-6.28c2.752-78.37,2.269-80.137,1.951-81.307c-0.941-3.477-4.551-5.516-7.99-4.57
								c-3.185,0.871-5.174,3.96-4.741,7.144c0.21,4.71-1.246,50.308-2.224,78.275c-0.127,3.591,2.682,6.61,6.273,6.731
								C1448.725,2485.014,1448.807,2485.014,1448.884,2485.014z"/>
							
								<linearGradient id="SVGID_00000083059719851297928070000014694914184007136695_" gradientUnits="userSpaceOnUse" x1="405.0264" y1="2410.8682" x2="196.7513" y2="2713.5173" gradientTransform="matrix(-1 0 0 1 1820.5695 0)">
								<stop  offset="0" style="stop-color:#09005D"/>
								<stop  offset="1" style="stop-color:#1A0F91"/>
							</linearGradient>
							<path style="fill:url(#SVGID_00000083059719851297928070000014694914184007136695_);" d="M1434.78,2481.76
								c1.799,0,3.255-1.455,3.255-3.255v-79.367c0-1.799-1.455-3.255-3.255-3.255c-1.799,0-3.254,1.455-3.254,3.255v79.367
								C1431.526,2480.304,1432.981,2481.76,1434.78,2481.76z"/>
							
								<linearGradient id="SVGID_00000023254747878812811400000005693038716665802153_" gradientUnits="userSpaceOnUse" x1="411.4243" y1="2415.2712" x2="203.1506" y2="2717.9187" gradientTransform="matrix(-1 0 0 1 1820.5695 0)">
								<stop  offset="0" style="stop-color:#09005D"/>
								<stop  offset="1" style="stop-color:#1A0F91"/>
							</linearGradient>
							<path style="fill:url(#SVGID_00000023254747878812811400000005693038716665802153_);" d="M1423.39,2481.76
								c1.767,0,3.216-1.411,3.254-3.178c0.623-27.578,2.079-72.624,3.382-78.039c0.572-1.023,0.565-2.32-0.121-3.375
								c-0.985-1.513-3-1.919-4.506-0.934c-1.773,1.162-3.458,2.263-5.263,82.196c-0.038,1.799,1.385,3.286,3.178,3.331H1423.39z"/>
							
								<linearGradient id="SVGID_00000144296033726140923020000003610325105439737253_" gradientUnits="userSpaceOnUse" x1="286.1018" y1="2403.7776" x2="77.8271" y2="2706.4263" gradientTransform="matrix(-1 0 0 1 1820.5695 0)">
								<stop  offset="0" style="stop-color:#09005D"/>
								<stop  offset="1" style="stop-color:#1A0F91"/>
							</linearGradient>
							<path style="fill:url(#SVGID_00000144296033726140923020000003610325105439737253_);" d="M1557.502,2485.015
								c3.49,0,6.376-2.765,6.496-6.28c2.752-78.37,2.269-80.137,1.951-81.307c-0.941-3.477-4.551-5.516-7.99-4.57
								c-3.185,0.871-5.174,3.96-4.741,7.144c0.21,4.71-1.246,50.308-2.224,78.275c-0.127,3.591,2.682,6.61,6.273,6.731
								C1557.344,2485.015,1557.426,2485.015,1557.502,2485.015z"/>
							
								<linearGradient id="SVGID_00000005971611520746005940000014176480994067084161_" gradientUnits="userSpaceOnUse" x1="296.4076" y1="2410.8696" x2="88.1325" y2="2713.519" gradientTransform="matrix(-1 0 0 1 1820.5695 0)">
								<stop  offset="0" style="stop-color:#09005D"/>
								<stop  offset="1" style="stop-color:#1A0F91"/>
							</linearGradient>
							<path style="fill:url(#SVGID_00000005971611520746005940000014176480994067084161_);" d="M1543.398,2481.761
								c1.799,0,3.255-1.455,3.255-3.255v-79.367c0-1.799-1.455-3.254-3.255-3.254c-1.799,0-3.254,1.455-3.254,3.254v79.367
								C1540.145,2480.306,1541.599,2481.761,1543.398,2481.761z"/>
							
								<linearGradient id="SVGID_00000118374718936896679870000003069333856161387411_" gradientUnits="userSpaceOnUse" x1="302.8055" y1="2415.2727" x2="94.5318" y2="2717.9202" gradientTransform="matrix(-1 0 0 1 1820.5695 0)">
								<stop  offset="0" style="stop-color:#09005D"/>
								<stop  offset="1" style="stop-color:#1A0F91"/>
							</linearGradient>
							<path style="fill:url(#SVGID_00000118374718936896679870000003069333856161387411_);" d="M1532.009,2481.761
								c1.767,0,3.216-1.411,3.254-3.178c0.623-27.578,2.079-72.624,3.382-78.039c0.572-1.023,0.565-2.32-0.12-3.375
								c-0.986-1.513-3-1.919-4.507-0.934c-1.773,1.163-3.458,2.263-5.263,82.196c-0.038,1.799,1.385,3.286,3.178,3.331H1532.009z"
								/>
							
								<linearGradient id="SVGID_00000010268867847740040840000000172472363826750886_" gradientUnits="userSpaceOnUse" x1="351.8496" y1="2374.2737" x2="143.5755" y2="2676.9216" gradientTransform="matrix(-1 0 0 1 1820.5695 0)">
								<stop  offset="0" style="stop-color:#09005D"/>
								<stop  offset="1" style="stop-color:#1A0F91"/>
							</linearGradient>
							<path style="fill:url(#SVGID_00000010268867847740040840000000172472363826750886_);" d="M1512.342,2488.986
								c3.439,0,6.312-2.695,6.496-6.172l4.341-83.34c0.185-3.591-2.574-6.648-6.165-6.839c-3.407-0.241-6.648,2.575-6.839,6.166
								l-4.341,83.34c-0.185,3.591,2.574,6.648,6.165,6.839C1512.114,2488.986,1512.228,2488.986,1512.342,2488.986z"/>
						</g>
					</g>
				</g>
				<g style="clip-path:url(#SVGID_00000103263678015744452300000009579437610578955664_);">
					<g>
						<g>
							
								<linearGradient id="SVGID_00000086666567440867051910000008569569387690849936_" gradientUnits="userSpaceOnUse" x1="1626.0728" y1="2132.2378" x2="1624.9535" y2="2276.6421" gradientTransform="matrix(-1 0 0 1 4268.6211 0)">
								<stop  offset="0" style="stop-color:#4F52FF"/>
								<stop  offset="1" style="stop-color:#4042E2"/>
							</linearGradient>
							<path style="fill:url(#SVGID_00000086666567440867051910000008569569387690849936_);" d="M2586.545,2552.962
								c21.534,1.861,58.907,4.885,88.37,6.182c17.711,0.78,27.908-0.955,33.78-3.306c-0.01,0.662-0.029,1.288-0.055,1.868
								c-0.139,3.1-2.658,5.581-5.79,5.756c-55.673,3.107-99.949,1.075-115.711,0.116c-3.259-0.199-5.202-3.741-3.535-6.519
								C2584.438,2555.67,2585.448,2554.308,2586.545,2552.962z"/>
							
								<linearGradient id="SVGID_00000127731068513097592530000017357262636318581429_" gradientUnits="userSpaceOnUse" x1="1559.9189" y1="2534.4065" x2="1682.0767" y2="2534.4065" gradientTransform="matrix(-1 0 0 1 4268.6211 0)">
								<stop  offset="0" style="stop-color:#09005D"/>
								<stop  offset="1" style="stop-color:#1A0F91"/>
							</linearGradient>
							<path style="fill:url(#SVGID_00000127731068513097592530000017357262636318581429_);" d="M2674.915,2559.144
								c-29.463-1.297-66.836-4.321-88.37-6.182c21.171-25.975,88.37-43.482,88.37-43.482h18.979
								c13.054,18.816,14.944,36.731,14.801,46.358C2702.823,2558.189,2692.626,2559.924,2674.915,2559.144z"/>
							
								<linearGradient id="SVGID_00000073695033591618650640000013631424735590901935_" gradientUnits="userSpaceOnUse" x1="1571.5313" y1="2500.012" x2="1606.9382" y2="2500.012" gradientTransform="matrix(-1 0 0 1 4268.6211 0)">
								<stop  offset="0" style="stop-color:#FEBBBA"/>
								<stop  offset="1" style="stop-color:#FF928E"/>
							</linearGradient>
							<path style="fill:url(#SVGID_00000073695033591618650640000013631424735590901935_);" d="M2697.09,2478.496l-1.776,35.146
								c-0.192,3.806-3.041,7.004-6.853,7.549c-3.792,0.542-8.871,0.611-14.257-1.181c-3.313-1.103-5.773-3.895-6.384-7.3
								l-6.137-34.214H2697.09z"/>
						</g>
						<g>
							<g>
								
									<linearGradient id="SVGID_00000051360555599609967410000004754417112280204204_" gradientUnits="userSpaceOnUse" x1="1336.7017" y1="2129.9919" x2="1335.5823" y2="2274.3975" gradientTransform="matrix(-1 0 0 1 4268.6211 0)">
									<stop  offset="0" style="stop-color:#4F52FF"/>
									<stop  offset="1" style="stop-color:#4042E2"/>
								</linearGradient>
								<path style="fill:url(#SVGID_00000051360555599609967410000004754417112280204204_);" d="M2943.603,2558.88
									c9.339-1.302,13.564-6.154,15.335-11.34c0.012,0.047,0.023,0.093,0.035,0.14c1.374,5.471-1.811,11.141-8.179,13.837
									c-7.697,3.259-16.112,3.814-22.645,3.545c-7.009-0.289-13.443-3.189-16.979-7.831l-0.053-0.07
									C2918.154,2560.643,2928.03,2561.052,2943.603,2558.88z"/>
								
									<linearGradient id="SVGID_00000047053745812325963690000009109376069438512514_" gradientUnits="userSpaceOnUse" x1="1309.6829" y1="2519.2415" x2="1380.3876" y2="2519.2415" gradientTransform="matrix(-1 0 0 1 4268.6211 0)">
									<stop  offset="0" style="stop-color:#09005D"/>
									<stop  offset="1" style="stop-color:#1A0F91"/>
								</linearGradient>
								<path style="fill:url(#SVGID_00000047053745812325963690000009109376069438512514_);" d="M2899.574,2478.27h15.652
									c23.841-0.487,38.812,49.797,43.712,69.27c-1.771,5.186-5.997,10.037-15.335,11.34c-15.573,2.172-25.449,1.762-32.485-1.719
									c-12.88-16.949-19.266-41.773-22.335-56.26C2885.292,2484.425,2899.574,2478.27,2899.574,2478.27z"/>
							</g>
							
								<linearGradient id="SVGID_00000076578232441057018240000015919397396222818475_" gradientUnits="userSpaceOnUse" x1="1346.4341" y1="2470.4951" x2="1388.7491" y2="2470.4951" gradientTransform="matrix(-1 0 0 1 4268.6211 0)">
								<stop  offset="0" style="stop-color:#FEBBBA"/>
								<stop  offset="1" style="stop-color:#FF928E"/>
							</linearGradient>
							<path style="fill:url(#SVGID_00000076578232441057018240000015919397396222818475_);" d="M2913.214,2445.649l8.691,34.568
								c1.066,4.238-0.963,8.622-4.882,10.633c-4.862,2.495-11.707,5.117-17.998,4.358c-2.958-0.357-5.417-2.441-6.394-5.227
								l-12.76-36.369L2913.214,2445.649z"/>
						</g>
						
							<linearGradient id="SVGID_00000154414397974307715560000003331221990332415395_" gradientUnits="userSpaceOnUse" x1="2821.0742" y1="1368.0452" x2="2756.354" y2="2233.6882">
							<stop  offset="0" style="stop-color:#4F52FF"/>
							<stop  offset="1" style="stop-color:#4042E2"/>
						</linearGradient>
						<path style="fill:url(#SVGID_00000154414397974307715560000003331221990332415395_);" d="M2923.581,2455.641
							c-10.813,9.592-45.985,10.858-45.985,10.858c-126.693-304.075-178.519-347.273-178.519-347.273
							c18.293,114.772,2.949,368.863,2.949,368.863c-20.907,9.226-47.86,0-47.86,0c-1.698-187.897-30.579-351.761-64.697-480.948
							c85.629-1.925,131.166-31.227,146.035-42.987C2806.883,2079.228,2923.581,2455.641,2923.581,2455.641z"/>
						
							<linearGradient id="SVGID_00000153689933141604746050000013871967828636459678_" gradientUnits="userSpaceOnUse" x1="1878.58" y1="1587.1639" x2="908.5212" y2="2430.8691" gradientTransform="matrix(-1 0 0 1 4268.6211 0)">
							<stop  offset="0" style="stop-color:#4F52FF"/>
							<stop  offset="1" style="stop-color:#4042E2"/>
						</linearGradient>
						<path style="fill:url(#SVGID_00000153689933141604746050000013871967828636459678_);" d="M2713.758,1614.465
							c16.208,80.844,10.399,225.541,6.584,291.541c-1.072,18.551,11.877,44.267,22.344,61.812c1.642,2.752,0.628,6.275-2.222,7.74
							c-17.524,9.007-76.892,36.92-145.698,40.393c-4.588,0.231-8.684-2.893-9.873-7.331
							c-51.039-190.572-110.32-312.348-110.32-312.348C2540.023,1591.756,2713.758,1614.465,2713.758,1614.465z"/>
						
							<linearGradient id="SVGID_00000008123772331592559150000004228240424211912334_" gradientUnits="userSpaceOnUse" x1="1489.0306" y1="2313.7891" x2="1509.307" y2="2273.2366" gradientTransform="matrix(-1 0 0 1 4268.6211 0)">
							<stop  offset="0" style="stop-color:#09005D"/>
							<stop  offset="1" style="stop-color:#1A0F91"/>
						</linearGradient>
						<path style="fill:url(#SVGID_00000008123772331592559150000004228240424211912334_);" d="M2690.433,2112.027
							c0.719,0,1.448-0.194,2.108-0.594c1.912-1.169,2.518-3.661,1.355-5.571c-0.682-1.121-17.07-27.61-50.233-43.61
							c-2.015-0.967-4.442-0.131-5.418,1.89c-0.973,2.017-0.127,4.446,1.892,5.417c30.917,14.918,46.673,40.27,46.83,40.523
							C2687.73,2111.333,2689.066,2112.027,2690.433,2112.027z"/>
						<g>
							
								<linearGradient id="SVGID_00000049192805332954200610000011643201344686966167_" gradientUnits="userSpaceOnUse" x1="1540.2988" y1="1853.6981" x2="1389.6644" y2="1987.0883" gradientTransform="matrix(-1 0 0 1 4268.6211 0)">
								<stop  offset="0" style="stop-color:#FEBBBA"/>
								<stop  offset="1" style="stop-color:#FF928E"/>
							</linearGradient>
							<path style="fill:url(#SVGID_00000049192805332954200610000011643201344686966167_);" d="M2815.421,1846.488
								c-5.206,37.661-20.588,78.741-51.358,122.376l-11.697-9.536c0,0,13.503-54.784,5.827-116.958
								C2777.174,1838.667,2799.591,1842.484,2815.421,1846.488z"/>
							
								<linearGradient id="SVGID_00000067215321838317858750000002741003192973921952_" gradientUnits="userSpaceOnUse" x1="1797.7085" y1="1497.7548" x2="832.0249" y2="2337.6548" gradientTransform="matrix(-1 0 0 1 4268.6211 0)">
								<stop  offset="0" style="stop-color:#4F52FF"/>
								<stop  offset="1" style="stop-color:#4042E2"/>
							</linearGradient>
							<path style="fill:url(#SVGID_00000067215321838317858750000002741003192973921952_);" d="M2695.655,1714.217l18.103-99.751
								c0,0,120.954,92.456,101.662,232.022c-15.83-4.004-38.247-7.821-57.228-4.118
								C2752.663,1797.582,2736.146,1748.96,2695.655,1714.217z"/>
						</g>
						<g>
							
								<linearGradient id="SVGID_00000047020722958389441720000002930327771543888040_" gradientUnits="userSpaceOnUse" x1="1949.5132" y1="1672.2931" x2="983.8287" y2="2512.1938" gradientTransform="matrix(-1 0 0 1 4268.6211 0)">
								<stop  offset="0" style="stop-color:#4F52FF"/>
								<stop  offset="1" style="stop-color:#4042E2"/>
							</linearGradient>
							<path style="fill:url(#SVGID_00000047020722958389441720000002930327771543888040_);" d="M2474.574,1696.272l46.688,100.55
								c-7.549,60.705-40.159,86.953-75.321,97.02c-2.193-27.666-9.188-50.018-15.68-65.479
								C2475.188,1781.977,2474.574,1696.272,2474.574,1696.272z"/>
							
								<linearGradient id="SVGID_00000111153605641206635340000003572344387882662330_" gradientUnits="userSpaceOnUse" x1="1822.6807" y1="1866.3153" x2="1941.3115" y2="1866.3153" gradientTransform="matrix(-1 0 0 1 4268.6211 0)">
								<stop  offset="0" style="stop-color:#FEBBBA"/>
								<stop  offset="1" style="stop-color:#FF928E"/>
							</linearGradient>
							<path style="fill:url(#SVGID_00000111153605641206635340000003572344387882662330_);" d="M2430.261,1828.363
								c6.491,15.461,13.487,37.813,15.68,65.479c-93.811,36.398-118.631-34.191-118.631-34.191l17.337-3.059
								C2383.8,1860.718,2411.149,1848.095,2430.261,1828.363z"/>
						</g>
						
							<linearGradient id="SVGID_00000030467821855630477160000017366526825166232231_" gradientUnits="userSpaceOnUse" x1="1707.3687" y1="1549.2909" x2="1706.0729" y2="1770.8251" gradientTransform="matrix(-1 0 0 1 4268.6211 0)">
							<stop  offset="0" style="stop-color:#FEBBBA"/>
							<stop  offset="1" style="stop-color:#FF928E"/>
						</linearGradient>
						<path style="fill:url(#SVGID_00000030467821855630477160000017366526825166232231_);" d="M2517.589,1572.136l22.54,82.858
							c2.532,9.308,12.6,14.307,21.557,10.726c9.666-3.864,21.93-9.139,32.487-14.839c11.269-6.084,14.795-20.58,7.661-31.216
							l-46.861-69.873L2517.589,1572.136z"/>
					</g>
					
						<linearGradient id="SVGID_00000167367719526873698690000008812961778126360209_" gradientUnits="userSpaceOnUse" x1="2233.8059" y1="1741.2305" x2="2860.1223" y2="2090.4897">
						<stop  offset="0" style="stop-color:#09005D"/>
						<stop  offset="1" style="stop-color:#1A0F91"/>
					</linearGradient>
					<path style="fill:url(#SVGID_00000167367719526873698690000008812961778126360209_);" d="M2284.313,1804.205l577.559,210.209
						c24.223,8.816,35.802,36.398,25.131,59.863l-1.752,3.853c-9.442,20.761-33.98,29.867-54.68,20.292l-560.803-259.431
						L2284.313,1804.205z"/>
					<ellipse style="opacity:0.23;fill:#FFFFFF;" cx="2018.844" cy="1677.758" rx="285.11" ry="279.967"/>
					
						<linearGradient id="SVGID_00000172417446598581167080000017570710236967939758_" gradientUnits="userSpaceOnUse" x1="1717.8269" y1="1509.9135" x2="2359.2563" y2="1867.5696">
						<stop  offset="0" style="stop-color:#09005D"/>
						<stop  offset="1" style="stop-color:#1A0F91"/>
					</linearGradient>
					<path style="fill:url(#SVGID_00000172417446598581167080000017570710236967939758_);" d="M1701.593,1677.758
						c0,172.053,142.038,311.529,317.251,311.529c175.213,0,317.251-139.475,317.251-311.529
						c0-172.051-142.038-311.528-317.251-311.528C1843.631,1366.23,1701.593,1505.707,1701.593,1677.758z M1748.196,1677.758
						c0-146.778,121.173-265.766,270.649-265.766c149.474,0,270.648,118.988,270.648,265.766
						c0,146.779-121.174,265.766-270.648,265.766C1869.369,1943.524,1748.196,1824.537,1748.196,1677.758z"/>
					<path style="fill:#91B3FA;" d="M2311.704,1716.333c-1.167-0.149-1.99-1.215-1.843-2.382c0.93-7.317,1.584-14.721,1.939-22.009
						c0.056-1.175,0.84-2.108,2.238-2.024c1.172,0.056,2.08,1.057,2.024,2.232c-0.366,7.398-1.026,14.912-1.973,22.336
						c-0.135,1.077-1.054,1.863-2.114,1.863C2311.89,1716.35,2311.794,1716.345,2311.704,1716.333z M2307.701,1627.484
						c-3.54-19.741-9.211-39.151-16.86-57.694c0-0.003,0-0.006-0.006-0.011c-45.073-109.345-151.836-180.001-271.993-180.001
						c-56.031,0-110.501,15.566-157.518,45.014c-1.003,0.623-2.323,0.327-2.937-0.676c-0.626-0.998-0.327-2.311,0.671-2.937
						c47.7-29.873,102.947-45.662,159.785-45.662c121.887,0,230.201,71.691,275.933,182.634l0.006,0.005
						c7.762,18.825,13.518,38.534,17.114,58.579c0.209,1.158-0.564,2.266-1.719,2.472c-0.13,0.023-0.254,0.034-0.378,0.034
						C2308.784,1629.24,2307.887,1628.516,2307.701,1627.484z"/>
					<g>
						
							<linearGradient id="SVGID_00000165229928710419123910000010365976075103252368_" gradientUnits="userSpaceOnUse" x1="1471.1855" y1="3237.2322" x2="1362.1362" y2="3381.4954" gradientTransform="matrix(-0.9897 -0.1428 -0.1428 0.9897 4407.6758 -1480.9402)">
							<stop  offset="0" style="stop-color:#FEBBBA"/>
							<stop  offset="1" style="stop-color:#FF928E"/>
						</linearGradient>
						<path style="fill:url(#SVGID_00000165229928710419123910000010365976075103252368_);" d="M2468.277,1509.183
							c-0.205,1.423,18.8,94.554,18.8,94.554l52.946-11.982l-4.898-90.945C2535.125,1500.81,2471.715,1485.362,2468.277,1509.183z"
							/>
						
							<linearGradient id="SVGID_00000089559379665792136120000005059893950961897905_" gradientUnits="userSpaceOnUse" x1="539.0996" y1="1536.6049" x2="917.4527" y2="1584.4426" gradientTransform="matrix(-1 0 0 1 3127.8877 0)">
							<stop  offset="0" style="stop-color:#09005D"/>
							<stop  offset="1" style="stop-color:#1A0F91"/>
						</linearGradient>
						<path style="fill:url(#SVGID_00000089559379665792136120000005059893950961897905_);" d="M2523.216,1521.076l6.328,47.674
							c0.081,0.611,0.081,1.215-0.007,1.826c-0.534,3.737-3.314,16.459-16.156,12.821c-11.653-3.301-22.337-6.14-29.717-3.883
							c-3.313,1.014-5.313,4.37-4.619,7.765c1.729,8.461,5.977,27.456,12.187,43.395c1.26,3.235,4.802,4.933,8.135,3.961
							c10.042-2.927,31.047-9.694,46.671-19.097c2.117-1.274,3.378-3.576,3.274-6.045c-0.508-12.035-1.915-48.62-0.731-58.875
							c1.112-9.626,12.925-15.392,18.058-17.46c1.683-0.678,3.002-2.004,3.674-3.689c2.377-5.956,5.654-19.739-11.715-25.386
							c-3.635-1.182-5.551-5.101-4.259-8.699c2.572-7.162,3.657-18.092-9.78-24.113c-13.657-6.121-23.857,1.16-29.364,7.077
							c-2.227,2.392-5.8,2.757-8.563,1.011c-1.573-0.994-3.6-1.32-6.048,0.205c-3.299,2.055-7.668,0.655-9.371-2.84
							c-3.271-6.713-9.936-13.904-23.307-11.614c-23.726,4.063-26.413,30.354-20.154,45.761c6.259,15.406,31.732,9.539,44.51,1.772
							c9.716-5.905,22.319,0.284,27.802,3.591C2521.8,1517.282,2522.949,1519.065,2523.216,1521.076z"/>
						
							<linearGradient id="SVGID_00000132784726513687701030000000061257925409067432_" gradientUnits="userSpaceOnUse" x1="1311.4713" y1="3351.4773" x2="1398.9375" y2="3261.7393" gradientTransform="matrix(-0.9897 -0.1428 -0.1428 0.9897 4407.6758 -1480.9402)">
							<stop  offset="0" style="stop-color:#FEBBBA"/>
							<stop  offset="1" style="stop-color:#FF928E"/>
						</linearGradient>
						<path style="fill:url(#SVGID_00000132784726513687701030000000061257925409067432_);" d="M2550.71,1568
							c0,0-9.754-27.313,0.267-34.002c10.021-6.689,24.863-3.216,21.595,16.57C2568.508,1575.179,2550.71,1568,2550.71,1568z"/>
					</g>
					
						<linearGradient id="SVGID_00000149378491458706945830000000691554102612250022_" gradientUnits="userSpaceOnUse" x1="1599.7847" y1="1920.874" x2="1449.1501" y2="2054.2644" gradientTransform="matrix(-1 0 0 1 4268.6211 0)">
						<stop  offset="0" style="stop-color:#FEBBBA"/>
						<stop  offset="1" style="stop-color:#FF928E"/>
					</linearGradient>
					<path style="fill:url(#SVGID_00000149378491458706945830000000691554102612250022_);" d="M2757.189,1957.667l-54.6-4.45
						l-23.646,21.797c0,0,5.594,7.733,23.083,3.288c17.49-4.445,41.447-5.535,41.447-5.535s24.144,10.885,24.439-9.482
						L2757.189,1957.667z"/>
					
						<linearGradient id="SVGID_00000132783105827422661100000007303417144335184797_" gradientUnits="userSpaceOnUse" x1="1928.7081" y1="1852.3829" x2="1971.1908" y2="1852.3829" gradientTransform="matrix(-1 0 0 1 4268.6211 0)">
						<stop  offset="0" style="stop-color:#FEBBBA"/>
						<stop  offset="1" style="stop-color:#FF928E"/>
					</linearGradient>
					<path style="fill:url(#SVGID_00000132783105827422661100000007303417144335184797_);" d="M2334.264,1872.567
						c-4.722,3.689-20.899-4.013-30.799-9.337c-4.825-2.595-7.161-8.236-5.505-13.458c2.382-7.513,6.352-17.21,11.243-18.432
						C2317.318,1829.309,2353.722,1857.365,2334.264,1872.567z"/>
					<path style="fill:#91B3FA;" d="M2850.476,2090.341c0.231,0,0.468-0.037,0.699-0.115c22.559-7.802,27.807-21.13,28.235-30.938
						c0.62-14.335-8.388-27.638-22.407-33.106l-69.351-27.043c-1.077-0.428-2.323,0.11-2.757,1.212
						c-0.428,1.096,0.113,2.334,1.212,2.762l69.351,27.04c12.317,4.806,20.231,16.437,19.69,28.948
						c-0.535,12.345-9.07,21.46-25.372,27.094c-1.11,0.386-1.702,1.598-1.313,2.711
						C2848.768,2089.789,2849.591,2090.341,2850.476,2090.341z"/>
					<path style="fill:#91B3FA;" d="M2765.516,1994.922c0.851,0,1.657-0.516,1.984-1.356c0.428-1.099-0.113-2.333-1.212-2.762
						l-8.991-3.503c-1.077-0.431-2.328,0.116-2.757,1.212c-0.428,1.099,0.113,2.334,1.212,2.762l8.991,3.503
						C2764.998,1994.877,2765.257,1994.922,2765.516,1994.922z"/>
				</g>
			</g>
		</g>
		<g>
			
				<linearGradient id="SVGID_00000007403566025503131730000000645510125539132338_" gradientUnits="userSpaceOnUse" x1="909.5383" y1="2849.7095" x2="922.9711" y2="3382.552">
				<stop  offset="0" style="stop-color:#4F52FF"/>
				<stop  offset="1" style="stop-color:#4042E2"/>
			</linearGradient>
			<path style="fill:url(#SVGID_00000007403566025503131730000000645510125539132338_);" d="M1000.069,3165.618
				c-29.924,2.586-81.858,6.788-122.801,8.59c-24.612,1.083-38.781-1.327-46.941-4.594c0.014,0.92,0.039,1.79,0.076,2.597
				c0.194,4.308,3.695,7.755,8.046,7.998c77.364,4.318,138.891,1.494,160.794,0.161c4.529-0.276,7.229-5.198,4.912-9.059
				C1002.997,3169.381,1001.593,3167.489,1000.069,3165.618z"/>
			
				<linearGradient id="SVGID_00000063615562519327498300000016761366019052504456_" gradientUnits="userSpaceOnUse" x1="830.3166" y1="3139.833" x2="1000.0691" y2="3139.833">
				<stop  offset="0" style="stop-color:#09005D"/>
				<stop  offset="1" style="stop-color:#1A0F91"/>
			</linearGradient>
			<path style="fill:url(#SVGID_00000063615562519327498300000016761366019052504456_);" d="M877.268,3174.208
				c40.943-1.802,92.877-6.004,122.801-8.59c-29.42-36.095-122.801-60.424-122.801-60.424h-26.374
				c-18.14,26.148-20.766,51.042-20.568,64.42C838.487,3172.882,852.656,3175.292,877.268,3174.208z"/>
			
				<linearGradient id="SVGID_00000164503520675409231700000017414020700027134896_" gradientUnits="userSpaceOnUse" x1="846.4532" y1="3092.0376" x2="895.6554" y2="3092.0376">
				<stop  offset="0" style="stop-color:#A22B25"/>
				<stop  offset="1" style="stop-color:#C0423C"/>
			</linearGradient>
			<path style="fill:url(#SVGID_00000164503520675409231700000017414020700027134896_);" d="M846.453,3062.138l2.468,48.84
				c0.267,5.289,4.226,9.733,9.523,10.49c5.27,0.754,12.328,0.85,19.812-1.642c4.604-1.532,8.023-5.412,8.872-10.144l8.528-47.544
				H846.453z"/>
			<g>
				
					<linearGradient id="SVGID_00000117668150168910155130000012922715304786348462_" gradientUnits="userSpaceOnUse" x1="560.3015" y1="2881.3943" x2="549.1072" y2="3329.1624">
					<stop  offset="0" style="stop-color:#4F52FF"/>
					<stop  offset="1" style="stop-color:#4042E2"/>
				</linearGradient>
				<path style="fill:url(#SVGID_00000117668150168910155130000012922715304786348462_);" d="M540.352,3221.959
					c-12.977-2.339-18.848-11.052-21.31-20.366c-0.016,0.084-0.032,0.167-0.049,0.25c-1.909,9.825,2.517,20.008,11.365,24.851
					c10.695,5.854,22.389,6.851,31.467,6.367c9.74-0.519,18.68-5.728,23.594-14.064l0.074-0.125
					C575.717,3225.124,561.993,3225.86,540.352,3221.959z"/>
				
					<linearGradient id="SVGID_00000009554839369335521990000015748159011152247450_" gradientUnits="userSpaceOnUse" x1="519.0419" y1="3150.769" x2="617.2943" y2="3150.769">
					<stop  offset="0" style="stop-color:#09005D"/>
					<stop  offset="1" style="stop-color:#1A0F91"/>
				</linearGradient>
				<path style="fill:url(#SVGID_00000009554839369335521990000015748159011152247450_);" d="M601.535,3077.186h-21.75
					c-33.13-0.875-53.934,89.434-60.744,124.407c2.462,9.314,8.333,18.026,21.31,20.366c21.641,3.901,35.365,3.165,45.141-3.087
					c17.898-30.44,26.772-75.022,31.037-101.041C621.382,3088.239,601.535,3077.186,601.535,3077.186z"/>
			</g>
			
				<linearGradient id="SVGID_00000130612068765445239090000011318765585483710903_" gradientUnits="userSpaceOnUse" x1="570.1119" y1="3066.3804" x2="628.9138" y2="3066.3804">
				<stop  offset="0" style="stop-color:#A22B25"/>
				<stop  offset="1" style="stop-color:#C0423C"/>
			</linearGradient>
			<path style="fill:url(#SVGID_00000130612068765445239090000011318765585483710903_);" d="M582.581,3031.854l-12.078,48.036
				c-1.481,5.89,1.338,11.981,6.784,14.776c6.756,3.467,16.269,7.111,25.011,6.056c4.111-0.496,7.527-3.392,8.885-7.263
				l17.731-50.539L582.581,3031.854z"/>
			
				<linearGradient id="SVGID_00000096059431667500650850000015533816803804693671_" gradientUnits="userSpaceOnUse" x1="1293.6882" y1="1019.9153" x2="1112.3425" y2="1684.8501">
				<stop  offset="0" style="stop-color:#4F52FF"/>
				<stop  offset="1" style="stop-color:#4042E2"/>
			</linearGradient>
			<path style="fill:url(#SVGID_00000096059431667500650850000015533816803804693671_);" d="M1007.437,2399.195
				c0,0-107.93,674.653-106.152,678.361c0,0-29.809,13.549-62.306,1.727c0,0,9.76-360.65,32.629-498.932
				c0,0-184.199,322.35-242.694,482.971c0,0-30.509-3.638-55.763-20.258c0,0,198.331-580.215,251.244-657.497L1007.437,2399.195z"/>
			
				<linearGradient id="SVGID_00000011717857562001246800000003154437962105902009_" gradientUnits="userSpaceOnUse" x1="1053.2041" y1="721.7039" x2="965.8893" y2="1836.6412">
				<stop  offset="0" style="stop-color:#09005D"/>
				<stop  offset="1" style="stop-color:#1A0F91"/>
			</linearGradient>
			<path style="fill:url(#SVGID_00000011717857562001246800000003154437962105902009_);" d="M875.917,2576.838
				c-0.579,0-1.163-0.155-1.687-0.485c-1.494-0.936-1.945-2.902-1.012-4.393l40.333-64.423c0.466-0.742,1.215-1.263,2.072-1.436
				l29.682-5.974c1.736-0.342,3.408,0.775,3.756,2.496c0.345,1.727-0.772,3.408-2.496,3.757l-28.337,5.701l-39.606,63.26
				C878.016,2576.308,876.977,2576.838,875.917,2576.838z"/>
			
				<linearGradient id="SVGID_00000090257251662081198960000017180654317736366742_" gradientUnits="userSpaceOnUse" x1="1378.9039" y1="1827.7831" x2="1146.0159" y2="2130.7639">
				<stop  offset="0" style="stop-color:#A22B25"/>
				<stop  offset="1" style="stop-color:#C0423C"/>
			</linearGradient>
			<path style="fill:url(#SVGID_00000090257251662081198960000017180654317736366742_);" d="M1502.72,1738.564
				c0,0-72.829,16.063-117.126,36.515c-8.798,4.062-15.815,11.164-19.812,19.919c-13.248,29.021-52.885,101.793-129.754,136.521
				c11.069,14.693,28.894,45.255,36.659,96.625c46.168-34.363,86.026-91.749,105.161-185.865c0,0,14.571,7.922,32.749-0.907
				c9.604-4.665,20.692-11.28,29.016-16.483c8.294-5.184,14.471-13.243,16.87-22.656c3.168-12.428,1.302-23.358,1.302-35.082
				l37.435-11.598C1495.223,1755.553,1506.476,1751.305,1502.72,1738.564z"/>
			
				<linearGradient id="SVGID_00000060028751001886893790000000584392556005959570_" gradientUnits="userSpaceOnUse" x1="884.1655" y1="1660.0094" x2="571.817" y2="-254.3861">
				<stop  offset="0" style="stop-color:#4F52FF"/>
				<stop  offset="1" style="stop-color:#4042E2"/>
			</linearGradient>
			<path style="fill:url(#SVGID_00000060028751001886893790000000584392556005959570_);" d="M1272.688,2028.143
				c-7.765-51.369-25.589-81.932-36.659-96.625c-47.752,21.574-109.869,28.471-188.968,1.062
				c-7.291-2.526-14.897-4.006-22.608-4.458c-42.109-2.469-180.87-6.974-295.69,30.961c-24.165,7.984-43.738,25.848-53.824,48.995
				c-31.06,71.279-81.347,233.608,58.254,315.56c10.726-26.628,23.105-48.032,33.69-63.758
				c-22.482-37.92-29.14-89.713,10.755-157.158c29.09,78.549,42.737,193.162,45.589,243.884c0.939,16.7-1.991,33.368-8.543,48.786
				l-0.715,1.682c-1.402,3.299,0.527,7.091,4.055,7.883c78.59,17.654,160.329,12.857,184.75,10.84
				c4.36-0.36,7.982-3.479,8.982-7.693c38.216-161.027,38.303-270.868,28.947-340.305
				C1076.449,2075.792,1185.764,2092.839,1272.688,2028.143z"/>
			
				<linearGradient id="SVGID_00000183240386983408745360000007997451427322066594_" gradientUnits="userSpaceOnUse" x1="1228.7551" y1="1544.0001" x2="1077.6337" y2="1899.9751">
				<stop  offset="0" style="stop-color:#4F52FF"/>
				<stop  offset="1" style="stop-color:#4042E2"/>
			</linearGradient>
			<path style="fill:url(#SVGID_00000183240386983408745360000007997451427322066594_);" d="M1040.855,2072.129
				c-1.575,0-2.944-1.166-3.157-2.769c-8.976-67.798-27.252-97.386-27.434-97.677c-0.939-1.487-0.497-3.456,0.991-4.399
				c1.481-0.933,3.45-0.5,4.393,0.985c0.782,1.227,19.185,30.854,28.37,100.255c0.23,1.745-0.997,3.348-2.742,3.578
				C1041.134,2072.12,1040.995,2072.129,1040.855,2072.129z"/>
			
				<linearGradient id="SVGID_00000008837607914956329680000018359628214897579394_" gradientUnits="userSpaceOnUse" x1="878.3927" y1="1788.0801" x2="878.3927" y2="2085.2864">
				<stop  offset="0" style="stop-color:#A22B25"/>
				<stop  offset="1" style="stop-color:#C0423C"/>
			</linearGradient>
			<path style="fill:url(#SVGID_00000008837607914956329680000018359628214897579394_);" d="M846.909,1834.319
				c0,0-7.95,84.062-14.951,108.927c-1.062,3.772,0.577,7.75,4.004,9.709c11.881,6.789,40.376,17.861,79.353-1.241
				c6.314-3.095,10.111-9.677,9.816-16.643l-3.434-81.231L846.909,1834.319z"/>
			<g>
				
					<linearGradient id="SVGID_00000152959853331604297740000011119092025810643366_" gradientUnits="userSpaceOnUse" x1="848.6595" y1="1675.3556" x2="910.787" y2="1868.4548">
					<stop  offset="0" style="stop-color:#A22B25"/>
					<stop  offset="1" style="stop-color:#C0423C"/>
				</linearGradient>
				<path style="fill:url(#SVGID_00000152959853331604297740000011119092025810643366_);" d="M923.412,1726.777
					c0,0,25.429,58.414,27.137,89.074s8.314,50.554-27.137,56.729s-65.315-11.486-81.494-42.027c0,0-25.35-47.06-19.663-66.333
					C827.941,1744.948,923.412,1726.777,923.412,1726.777z"/>
				
					<linearGradient id="SVGID_00000145056084948605068650000000040305043599679926_" gradientUnits="userSpaceOnUse" x1="826.4089" y1="1690.1252" x2="961.7975" y2="1864.4377">
					<stop  offset="0" style="stop-color:#09005D"/>
					<stop  offset="1" style="stop-color:#1A0F91"/>
				</linearGradient>
				<path style="fill:url(#SVGID_00000145056084948605068650000000040305043599679926_);" d="M854.032,1808.595l2.018-0.89
					c2.569-1.133,3.668-4.191,2.378-6.684c-4.999-9.659-14.745-31.793-2.155-36.956c16.225-6.654,80.495-19.76,94.361-42.565
					c13.327-21.917,1.519-50.209-16.228-58.257c-1.188-0.538-2.588-0.111-3.197,1.042l-1.479,2.798
					c-1.012,1.916-3.842,1.625-4.444-0.456c-0.578-1.998-3.236-2.386-4.338-0.622c-4.263,6.823-15.77,17.883-46.543,23.563
					c-43.735,8.072-72.65,25.77-73.37,55.992c-0.046,1.92-2.088,2.987-3.728,1.988c-3.229-1.968-8.397-2.891-15.303,2.916
					c-12.011,10.099-7.096,36.298,19.234,57.848c1.251,1.024,1.24,2.977-0.114,3.858c-4.774,3.107-11.889,10.501,6.549,20.357
					c19.071,10.195,33.313,9.358,38.796,8.453c1.364-0.225,2.243-1.546,1.946-2.896l-5.853-26.562
					c-0.331-1.503,0.813-2.927,2.352-2.927H854.032z"/>
				
					<linearGradient id="SVGID_00000090980288748900944980000001789321507099895739_" gradientUnits="userSpaceOnUse" x1="801.624" y1="1690.4893" x2="863.7515" y2="1883.5886">
					<stop  offset="0" style="stop-color:#A22B25"/>
					<stop  offset="1" style="stop-color:#C0423C"/>
				</linearGradient>
				<path style="fill:url(#SVGID_00000090980288748900944980000001789321507099895739_);" d="M855.133,1814.2
					c0,0-9.701-37.314-26.431-26.852c-16.73,10.462,8.681,41.809,22.131,43.206L855.133,1814.2z"/>
			</g>
			
				<linearGradient id="SVGID_00000161605161072032079550000006700421933464072850_" gradientUnits="userSpaceOnUse" x1="1409.9886" y1="1809.8418" x2="1490.5867" y2="1522.7108">
				<stop  offset="0" style="stop-color:#A22B25"/>
				<stop  offset="1" style="stop-color:#C0423C"/>
			</linearGradient>
			<path style="fill:url(#SVGID_00000161605161072032079550000006700421933464072850_);" d="M1397.272,1833.598
				c-0.706,0-1.418-0.233-2.008-0.715c-1.366-1.109-1.572-3.117-0.46-4.484c2.754-3.39,27.195-33.272,36.61-38.588
				c3.426-1.936,5.468-3.935,5.901-5.78c0.209-0.881,0.07-1.872-0.427-2.999l-28.716,5.756l-16.271,13.959
				c-1.33,1.148-3.347,0.997-4.493-0.342c-1.148-1.336-0.994-3.348,0.342-4.496l16.901-14.505c0.415-0.354,0.912-0.597,1.448-0.706
				l31.79-6.371c1.275-0.257,2.554,0.279,3.272,1.345c2.33,3.457,3.102,6.671,2.357,9.821c-0.878,3.723-3.811,6.953-8.97,9.867
				c-7.083,4.002-27.522,28.11-34.802,37.062C1399.12,1833.198,1398.199,1833.598,1397.272,1833.598z"/>
			
				<linearGradient id="SVGID_00000008133754502498056080000016441673152619560380_" gradientUnits="userSpaceOnUse" x1="852.9342" y1="2153.2083" x2="848.4567" y2="2421.8691">
				<stop  offset="0" style="stop-color:#A22B25"/>
				<stop  offset="1" style="stop-color:#C0423C"/>
			</linearGradient>
			<path style="fill:url(#SVGID_00000008133754502498056080000016441673152619560380_);" d="M853.898,2364.039l112.401,1.391
				l-39.339-37.029c-9.778-9.204-24.702-10.695-35.989-3.374c-6.609,4.286-13.775,10.105-19.985,17.81
				c0,0-70.115-25.624-104.105-82.955c-10.586,15.726-22.965,37.13-33.69,63.758C763.662,2341.527,803.16,2355.593,853.898,2364.039
				z"/>
			<g>
				
					<linearGradient id="SVGID_00000147212903092758221960000016054880282478529717_" gradientUnits="userSpaceOnUse" x1="-3311.3882" y1="2196.9553" x2="-3541.2502" y2="2259.9543" gradientTransform="matrix(-0.9988 -0.0494 -0.0494 0.9988 -2381.2668 -55.0328)">
					<stop  offset="0" style="stop-color:#09005D"/>
					<stop  offset="1" style="stop-color:#1A0F91"/>
				</linearGradient>
				<path style="fill:url(#SVGID_00000147212903092758221960000016054880282478529717_);" d="M866.009,2378.535
					c0.218,0.01,0.436,0.016,0.656,0.015l285.318-0.308c7.053-0.006,12.764-5.669,12.757-12.648
					c-0.007-6.981-5.751-12.748-12.786-12.623l-285.318,0.308c-7.053,0.006-12.764,5.669-12.757,12.648
					C853.887,2372.689,859.261,2378.205,866.009,2378.535z"/>
				
					<linearGradient id="SVGID_00000058582882539244172020000013902256855893921928_" gradientUnits="userSpaceOnUse" x1="-3552.0684" y1="2156.1899" x2="-3714.207" y2="2327.5605" gradientTransform="matrix(-1 0 0 1 -2422.7358 0)">
					<stop  offset="0" style="stop-color:#09005D"/>
					<stop  offset="1" style="stop-color:#1A0F91"/>
				</linearGradient>
				<path style="fill:url(#SVGID_00000058582882539244172020000013902256855893921928_);" d="M1408.47,2122.221h-237.614
					c-17.529,0-33.484,10.009-40.96,25.696l-109.849,230.468h295.291c11.296,0,21.445-6.829,25.597-17.224l85.183-213.264
					C1431.04,2135.575,1421.861,2122.221,1408.47,2122.221z"/>
				
					<ellipse transform="matrix(0.313 -0.9497 0.9497 0.313 -1268.3673 2738.5906)" style="fill:#7D97F4;" cx="1258.888" cy="2246.064" rx="30.139" ry="18.701"/>
			</g>
		</g>
		<g>
			
				<linearGradient id="SVGID_00000096759382325309074640000013321588519007566220_" gradientUnits="userSpaceOnUse" x1="3041.5457" y1="686.792" x2="2866.9165" y2="985.677">
				<stop  offset="0" style="stop-color:#FF928E"/>
				<stop  offset="1" style="stop-color:#FE7062"/>
			</linearGradient>
			<path style="fill:url(#SVGID_00000096759382325309074640000013321588519007566220_);" d="M2790.758,985.782
				c109.611,15.301,227.601,86.161,238.125,205.783c8.949,101.722-98.877,154.744-165.811,179.592
				c-18.669,6.93-34.128,20.457-43.524,38.015c-22.484,42.017-74.193,115.008-152.826,89.952
				c-5.727-1.825-5.074-10.175,0.855-11.166c18.861-3.152,44.851-11.369,59.261-32.71c19.627-29.066,2.069-68.752-32.429-75.071
				c-65.287-11.959-192.741-54.989-209.482-209.139C2462.284,962.565,2790.758,985.782,2790.758,985.782z"/>
			<path style="fill:#FFFFFF;" d="M2762.56,1161.675c0,0-19.242-67.269-84.988-41.805c-62.284,24.123-23.261,108.085,79.321,145.336
				c11.121,4.039,23.512,2.393,33.228-4.358c36.375-25.274,119.208-93.216,53.895-150.034
				C2801.837,1074.123,2762.56,1161.675,2762.56,1161.675z"/>
			<path style="opacity:0.7;fill:#FFFFFF;" d="M2972.232,1115.206c0.853-0.177,1.685-0.526,2.447-1.054
				c3.031-2.106,3.782-6.27,1.677-9.302c-56.459-81.297-155.322-102.129-228.317-105.288c-3.693-0.168-6.806,2.7-6.965,6.388
				c-0.161,3.687,2.7,6.806,6.388,6.965c69.974,3.03,164.581,22.76,217.916,99.56
				C2966.955,1114.744,2969.686,1115.736,2972.232,1115.206z"/>
			<path style="opacity:0.7;fill:#FFFFFF;" d="M3006.145,1203.126c3.196-0.665,5.505-3.593,5.3-6.948
				c-0.033-0.55-0.885-13.685-6.788-33.034c-1.078-3.531-4.807-5.534-8.343-4.442c-3.531,1.077-5.518,4.812-4.442,8.343
				c5.446,17.852,6.223,29.826,6.231,29.944c0.224,3.685,3.391,6.489,7.076,6.265
				C3005.509,1203.234,3005.832,1203.191,3006.145,1203.126z"/>
		</g>
	</g>
</g>
</svg>
